<?xml version="1.0" encoding="utf-8"?>
<!-- Generator: Adobe Illustrator 21.1.0, SVG Export Plug-In . SVG Version: 6.00 Build 0)  -->
<svg version="1.1" id="Layer_1" xmlns="http://www.w3.org/2000/svg" xmlns:xlink="http://www.w3.org/1999/xlink" x="0px" y="0px"
	 viewBox="0 0 210 210" style="enable-background:new 0 0 210 210;" xml:space="preserve">
<style type="text/css">
	.st0{fill:#6B7F9E;}
	.st1{fill:#FFFFFF;}
	.st2{fill:#ECF0F1;}
	.st3{fill:#C6CBD6;}
	.st4{fill:none;}
	.st5{fill:#83CF8F;}
	.st6{fill:#FF7069;}
	.st7{fill:#F7635B;}
	.st8{fill:#666666;}
</style>
<g id="Layer_x0020_1">
	<g id="_343150760">
		<g>
			<g>
				<polygon class="st0" points="28.1,16.1 153.5,16.1 153.5,197.8 28.1,197.8 				"/>
				<polygon class="st1" points="34.1,25.8 147.4,25.8 147.4,187.7 34.1,187.7 				"/>
				<path class="st2" d="M75,20.1h31.6c3.7,0,6.8,3.1,6.8,6.8v8.2H68.2v-8.2C68.2,23.2,71.3,20.1,75,20.1z"/>
				<polygon class="st3" points="113.4,31.9 113.4,35.1 68.2,35.1 68.2,31.9 				"/>
				<path class="st3" d="M90.8,7.3L90.8,7.3c3.2,0,5.9,2.6,5.9,5.9v6.9H84.9v-6.9C84.9,10,87.5,7.3,90.8,7.3z"/>
				<polygon class="st4" points="63.2,44.1 118.4,44.1 118.4,49 63.2,49 				"/>
				<path class="st3" d="M68,59.9h66.5v2.9H68V59.9z M68,157.2h66.5v2.9H68V157.2z M68,137.7h66.5v2.9H68V137.7z M68,118.3h66.5v2.9
					H68V118.3z M68,98.8h66.5v2.9H68V98.8z M68,79.4h66.5v2.9H68V79.4z"/>
				<path class="st5" d="M53.6,55.9c2.7,0,4.9,2.2,4.9,4.9c0,2.7-2.2,4.9-4.9,4.9s-4.9-2.2-4.9-4.9C48.7,58,50.9,55.9,53.6,55.9z
					 M53.6,154c2.7,0,4.9,2.2,4.9,4.9c0,2.7-2.2,4.9-4.9,4.9s-4.9-2.2-4.9-4.9C48.7,156.2,50.9,154,53.6,154z M53.6,134.5
					c2.7,0,4.9,2.2,4.9,4.9c0,2.7-2.2,4.9-4.9,4.9s-4.9-2.2-4.9-4.9C48.7,136.7,50.9,134.5,53.6,134.5z M53.6,115
					c2.7,0,4.9,2.2,4.9,4.9c0,2.7-2.2,4.9-4.9,4.9s-4.9-2.2-4.9-4.9C48.7,117.2,50.9,115,53.6,115z M53.6,95.3
					c2.7,0,4.9,2.2,4.9,4.9c0,2.7-2.2,4.9-4.9,4.9s-4.9-2.2-4.9-4.9C48.7,97.4,50.9,95.3,53.6,95.3z M53.6,75.5
					c2.7,0,4.9,2.2,4.9,4.9c0,2.7-2.2,4.9-4.9,4.9s-4.9-2.2-4.9-4.9C48.7,77.7,50.9,75.5,53.6,75.5z"/>
			</g>
			<circle class="st5" cx="151" cy="62.7" r="30.9"/>
			<g>
				<polygon class="st1" points="142.3,158.7 149.5,164.4 198.5,102.1 191.2,96.4 				"/>
				<polygon class="st3" points="177.7,128.5 179.1,126.8 171.9,121.1 170.5,122.9 				"/>
				<polygon class="st6" points="140.7,170.9 149.5,164.4 142.3,158.7 138,168.7 				"/>
				<polygon class="st7" points="140.7,170.9 149.5,164.4 147.9,163.1 140.2,170.5 				"/>
				<path class="st6" d="M197.5,91.5l4.3,3.3c1.2,0.9,1.3,2.7,0.3,4l-22.8,28.9l-8.5-6.7l22.8-28.9
					C194.6,90.8,196.4,90.5,197.5,91.5L197.5,91.5z"/>
				<path class="st7" d="M201.3,98.3l-3,3.8l-7.3,9.2l-12.6,15.9l0.1,0.1l0.6,0.5l12.2-15.5L202,98.9c1-1.3,0.8-3.1-0.3-4l-0.2-0.1
					C202.2,95.8,202.1,97.2,201.3,98.3L201.3,98.3z"/>
				<polygon class="st8" points="134.5,175.6 134.8,175.8 140.7,170.9 138,168.7 				"/>
				<path class="st0" d="M190.5,96l9.9,7.9c0.3,0.3,0.3,0.6,0,0.9l-13.2,16.8l-0.3,0.2l-1.7,0.6c-0.8,0.2-1.3-0.8-0.3-1.3l1.5-0.5
					l12.7-16.1l-9.4-7.5L190.5,96L190.5,96z"/>
				<polygon class="st3" points="148.9,163.9 149.5,164.4 177.7,128.5 177.1,128.1 				"/>
			</g>
			<path class="st1" d="M168,69.8h-23.6l-9.9-22.7h-6.2v-2.8h8l9.9,22.7H168L168,69.8L168,69.8z M172.5,52.7l1.1-2.8h-31.2l1.1,2.8
				H172.5z M146.9,61.3l1.1,2.8h19.8l1.1-2.8H146.9z M171.4,55.6h-26.6l1.1,2.8h24.4L171.4,55.6L171.4,55.6z M167.9,76.9
				c0,2.3-1.9,4.3-4.3,4.3c-2.3,0-4.3-1.9-4.3-4.3c0-2.3,1.9-4.3,4.3-4.3C166,72.6,167.9,74.5,167.9,76.9z M153.7,76.9
				c0,2.3-1.9,4.3-4.3,4.3c-2.3,0-4.3-1.9-4.3-4.3c0-2.3,1.9-4.3,4.3-4.3C151.8,72.6,153.7,74.5,153.7,76.9z"/>
		</g>
	</g>
</g>
</svg>
