<?xml version="1.0" encoding="utf-8"?>
<!-- Generator: Adobe Illustrator 21.1.0, SVG Export Plug-In . SVG Version: 6.00 Build 0)  -->
<svg version="1.1" id="Food" xmlns="http://www.w3.org/2000/svg" xmlns:xlink="http://www.w3.org/1999/xlink" x="0px" y="0px"
	 viewBox="0 0 90 90" style="enable-background:new 0 0 90 90;" xml:space="preserve">
<style type="text/css">
	.st0{fill:#83AEED;}
	.st1{fill:#ED655F;}
	.st2{fill:#F1B565;}
	.st3{fill:#BDE3EF;}
	.st4{fill:#FFFFFF;}
	.st5{fill:#81D4EF;}
	.st6{fill:#232E38;}
	.st7{fill:#5B6875;}
	.st8{fill:#DAE3E6;}
	.st9{fill:#383128;}
	.st10{fill:#3F291E;}
	.st11{fill:#212A35;}
	.st12{fill:#2B3F15;}
	.st13{fill:#E45544;}
	.st14{fill:#76D03B;}
</style>
<title></title>
<path class="st0" d="M21,30V18c0-0.6,0.4-1,1-1h10c0.6,0,1,0.4,1,1v12"/>
<path class="st1" d="M44,27.7c0,5-3,12.3-4,12.3s-4-7.3-4-12.3s1.8-6,4-6S44,22.6,44,27.7z"/>
<path class="st2" d="M53,28l-2-1l-2,1l-2-1l-2,1l-2-1l-2,1l-2-1l-2,1l-2-1l-2,1l-2-1l-2,1l-2-1l-2,1l-2-1l-2,1l-2-1v42
	c0,2.2,1.8,4,4,4h28c2.2,0,4-1.8,4-4V27L53,28z"/>
<path class="st3" d="M69,40.6V68c0,2.5-2.1,4.6-4.6,4.6H51.6c-2.5,0-4.6-2.1-4.6-4.6V40.6c0-1.2,0.3-2.4,0.9-3.5l4.1-7.5
	c0.4-0.7,0.5-1.4,0.5-2.2v-4.3h11v4.3c0,0.8,0.2,1.5,0.6,2.2l4,7.4C68.7,38.1,69,39.3,69,40.6z"/>
<rect x="47" y="43" class="st4" width="22" height="13"/>
<rect x="25" y="49" class="st5" width="18" height="21"/>
<rect x="25" y="53" class="st4" width="18" height="13"/>
<path class="st6" d="M43,71H25c-0.6,0-1-0.4-1-1V49c0-0.6,0.4-1,1-1h18c0.6,0,1,0.4,1,1v21C44,70.6,43.6,71,43,71z M26,69h16V50H26
	V69z"/>
<path class="st7" d="M35,59h-2c-0.6,0-1-0.4-1-1s0.4-1,1-1h2c0.6,0,1,0.4,1,1S35.6,59,35,59z"/>
<path class="st7" d="M38,62h-8c-0.6,0-1-0.4-1-1s0.4-1,1-1h8c0.6,0,1,0.4,1,1S38.6,62,38,62z"/>
<path class="st8" d="M25,46h18c0.6,0,1,0.4,1,1v1c0,0.6-0.4,1-1,1H25c-0.6,0-1-0.4-1-1v-1C24,46.4,24.4,46,25,46z"/>
<path class="st6" d="M43,50H25c-1.1,0-2-0.9-2-2v-1c0-1.1,0.9-2,2-2h18c1.1,0,2,0.9,2,2v1C45,49.1,44.1,50,43,50z M25,47v1h18v-1H25
	z"/>
<path class="st6" d="M43,54c-0.3,0-0.5-0.1-0.7-0.3c-0.1-0.1-0.2-0.2-0.2-0.3C42,53.3,42,53.1,42,53c0-0.6,0.4-1,1-1s1,0.4,1,1
	c0,0.1,0,0.3-0.1,0.4c-0.1,0.1-0.1,0.2-0.2,0.3C43.5,53.9,43.3,54,43,54z"/>
<path class="st6" d="M38.4,53c0-0.6,0.4-1,1-1l0,0c0.6,0,1,0.4,1,1l0,0c0,0.6-0.4,1-1,1l0,0C38.8,54,38.4,53.6,38.4,53z M34.8,53
	c0-0.6,0.4-1,1-1l0,0c0.6,0,1,0.4,1,1l0,0c0,0.6-0.4,1-1,1l0,0C35.2,54,34.8,53.6,34.8,53C34.8,53,34.8,53,34.8,53z M31.2,53
	c0-0.6,0.4-1,1-1l0,0l0,0c0.6,0,1,0.4,1,1l0,0c0,0.6-0.4,1-1,1l0,0C31.6,54,31.2,53.6,31.2,53C31.2,53,31.2,53,31.2,53z M27.6,53
	c0-0.6,0.4-1,1-1l0,0c0.6,0,1,0.4,1,1l0,0c0,0.6-0.4,1-1,1l0,0C28,54,27.6,53.6,27.6,53C27.6,53,27.6,53,27.6,53z"/>
<path class="st6" d="M25,54c-0.1,0-0.3,0-0.4-0.1c-0.3-0.1-0.4-0.3-0.5-0.5C24,53.3,24,53.1,24,53c0-0.6,0.4-1,1-1s1,0.4,1,1
	c0,0.1,0,0.3-0.1,0.4c-0.1,0.1-0.1,0.2-0.2,0.3c-0.1,0.1-0.2,0.2-0.3,0.2C25.3,54,25.1,54,25,54z"/>
<path class="st6" d="M43,67c-0.1,0-0.3,0-0.4-0.1c-0.3-0.1-0.4-0.3-0.5-0.5c-0.1-0.2-0.1-0.5,0-0.8c0-0.1,0.1-0.2,0.2-0.3
	c0.1-0.1,0.2-0.2,0.3-0.2c0.2-0.1,0.5-0.1,0.8,0c0.3,0.1,0.4,0.3,0.5,0.5c0.1,0.2,0.1,0.5,0,0.8c-0.1,0.1-0.1,0.2-0.2,0.3
	c-0.1,0.1-0.2,0.2-0.3,0.2C43.3,67,43.1,67,43,67z"/>
<path class="st6" d="M38.4,66c0-0.6,0.4-1,1-1l0,0c0.6,0,1,0.4,1,1l0,0c0,0.6-0.4,1-1,1l0,0C38.8,67,38.4,66.6,38.4,66z M34.8,66
	c0-0.6,0.4-1,1-1l0,0c0.6,0,1,0.4,1,1l0,0c0,0.6-0.4,1-1,1l0,0C35.2,67,34.8,66.6,34.8,66C34.8,66,34.8,66,34.8,66z M31.2,66
	c0-0.6,0.4-1,1-1l0,0l0,0c0.6,0,1,0.4,1,1l0,0c0,0.6-0.4,1-1,1l0,0C31.6,67,31.2,66.6,31.2,66C31.2,66,31.2,66,31.2,66z M27.6,66
	c0-0.6,0.4-1,1-1l0,0c0.6,0,1,0.4,1,1l0,0c0,0.6-0.4,1-1,1l0,0C28,67,27.6,66.6,27.6,66C27.6,66,27.6,66,27.6,66z"/>
<path class="st6" d="M25,67c-0.6,0-1-0.5-1-1c0-0.1,0-0.3,0.1-0.4c0-0.1,0.1-0.2,0.2-0.3c0.1-0.1,0.2-0.2,0.3-0.2
	c0.2-0.1,0.5-0.1,0.8,0c0.1,0,0.2,0.1,0.3,0.2c0.2,0.2,0.3,0.4,0.3,0.7c0,0.1,0,0.3-0.1,0.4c-0.1,0.1-0.1,0.2-0.2,0.3
	c-0.1,0.1-0.2,0.2-0.3,0.2C25.3,67,25.1,67,25,67z"/>
<path class="st8" d="M25,70h18c0.6,0,1,0.4,1,1v1c0,0.6-0.4,1-1,1H25c-0.6,0-1-0.4-1-1v-1C24,70.4,24.4,70,25,70z"/>
<path class="st6" d="M43,74H25c-1.1,0-2-0.9-2-2v-1c0-1.1,0.9-2,2-2h18c1.1,0,2,0.9,2,2v1C45,73.1,44.1,74,43,74z M25,71v1h18v-1H25
	z"/>
<path class="st6" d="M47.5,44c-0.3,0-0.5-0.1-0.7-0.3c-0.1-0.1-0.2-0.2-0.2-0.3c-0.1-0.1-0.1-0.2-0.1-0.4c0-0.3,0.1-0.5,0.3-0.7
	c0.1-0.1,0.2-0.2,0.3-0.2c0.4-0.2,0.8-0.1,1.1,0.2c0.2,0.2,0.3,0.4,0.3,0.7c0,0.1,0,0.3-0.1,0.4c-0.1,0.1-0.1,0.2-0.2,0.3
	C48.1,43.9,47.8,44,47.5,44z"/>
<path class="st6" d="M53.8,43c0-0.6,0.4-1,1-1l0,0c0.6,0,1,0.4,1,1l0,0c0,0.6-0.4,1-1,1l0,0C54.3,44,53.8,43.6,53.8,43z M50.2,43
	c0-0.6,0.4-1,1-1l0,0c0.6,0,1,0.4,1,1l0,0c0,0.6-0.4,1-1,1l0,0C50.6,44,50.2,43.6,50.2,43z"/>
<path class="st6" d="M58.5,44c-0.1,0-0.3,0-0.4-0.1c-0.1-0.1-0.2-0.1-0.3-0.2c-0.2-0.2-0.3-0.4-0.3-0.7c0-0.6,0.4-1,1-1s1,0.4,1,1
	S59,44,58.5,44z"/>
<path class="st3" d="M66.2,21.8L66.2,21.8c0,0.7-0.3,1.5-0.8,2c-0.5,0.5-1.2,0.8-1.9,0.8h-11c-1.5-0.1-2.7-1.4-2.6-3
	c0.1-1.4,1.2-2.5,2.6-2.6h11C65,19,66.2,20.3,66.2,21.8z"/>
<path class="st6" d="M53.6,74h-2c-3.1,0-5.6-2.6-5.6-5.7V40.5c0-1.4,0.3-2.8,1-4l4.1-7.6c0.3-0.5,0.4-1.1,0.4-1.8v-1.7
	c-2-0.6-3.2-2.7-2.6-4.7c0.5-1.6,1.9-2.7,3.6-2.7h11c2.1,0,3.8,1.8,3.7,3.9c0,1-0.4,1.9-1.1,2.6c-0.5,0.5-1,0.8-1.7,1v1.7
	c0,0.6,0.1,1.2,0.4,1.8l4,7.5c0.4,0.8,0.7,1.6,0.9,2.5c0.1,0.6-0.3,1.1-0.8,1.2s-1.1-0.3-1.2-0.8c-0.1-0.7-0.3-1.3-0.7-1.9l-4-7.5
	c-0.4-0.8-0.7-1.8-0.7-2.7v-2.6c0-0.6,0.4-1,1-1c0.5,0,0.9-0.2,1.2-0.5c0.7-0.7,0.7-1.8,0-2.5c-0.3-0.3-0.7-0.5-1.2-0.5h-11
	c-1,0.1-1.7,0.9-1.7,1.9c0.1,0.9,0.8,1.6,1.7,1.7c0.6,0,1,0.4,1,1v2.5c0,0.9-0.2,1.9-0.7,2.7l-4.1,7.6c-0.5,0.9-0.8,2-0.8,3.1v27.8
	c0,2,1.6,3.6,3.6,3.7c0,0,0,0,0,0h2c0.6,0,1,0.4,1,1S54.1,74,53.6,74L53.6,74z"/>
<path class="st6" d="M63.5,25.6h-3.7c-0.6,0-1-0.4-1-1s0.4-1,1-1h3.7c0.6,0,1,0.4,1,1S64.1,25.6,63.5,25.6z"/>
<path class="st6" d="M53.4,25.6h-0.9c-0.6,0-1-0.4-1-1s0.4-1,1-1h0.9c0.6,0,1,0.4,1,1S54,25.6,53.4,25.6z"/>
<path class="st9" d="M20.2,72.8c-0.3,0-0.5-0.1-0.7-0.3C18.5,71.6,18,70.3,18,69V27c0-0.6,0.5-1,1-1c0.2,0,0.3,0,0.4,0.1l1.5,0.8
	l1.5-0.8c0.3-0.1,0.6-0.1,0.9,0l1.5,0.8l1.5-0.8c0.3-0.1,0.6-0.1,0.9,0l1.5,0.8l1.5-0.8c0.3-0.1,0.6-0.1,0.9,0l1.5,0.8l1.5-0.8
	c0.3-0.1,0.6-0.1,0.9,0l1.5,0.8l1.5-0.8c0.3-0.1,0.6-0.1,0.9,0l1.5,0.8l1.5-0.8c0.3-0.1,0.6-0.1,0.9,0l1.5,0.8l1.5-0.8
	c0.3-0.1,0.6-0.1,0.9,0l2,1c0.5,0.2,0.7,0.8,0.5,1.3s-0.8,0.7-1.3,0.5c0,0,0,0-0.1,0L47,28.1l-1.5,0.8c-0.3,0.1-0.6,0.1-0.9,0
	L43,28.1l-1.5,0.8c-0.3,0.1-0.6,0.1-0.9,0L39,28.1l-1.5,0.8c-0.3,0.1-0.6,0.1-0.9,0L35,28.1l-1.5,0.8c-0.3,0.1-0.6,0.1-0.9,0
	L31,28.1l-1.5,0.8c-0.3,0.1-0.6,0.1-0.9,0L27,28.1l-1.5,0.8c-0.3,0.1-0.6,0.1-0.9,0L23,28.1l-1.5,0.8c-0.3,0.1-0.6,0.1-0.9,0
	L20,28.6V69c0,0.8,0.3,1.6,0.9,2.1c0.4,0.4,0.4,1,0,1.4C20.7,72.7,20.4,72.8,20.2,72.8z"/>
<path class="st10" d="M36.8,24.4c-0.1,0-0.2,0-0.3-0.1h-0.1c-0.5-0.2-0.7-0.8-0.5-1.3c0,0,0,0,0-0.1c0.8-1.5,2.4-2.4,4.1-2.3
	c1.5-0.1,2.9,0.5,3.8,1.7c0.3,0.5,0.2,1.1-0.3,1.4c-0.4,0.3-1,0.2-1.3-0.2c-0.5-0.7-1.3-1-2.2-0.9c-0.9-0.1-1.8,0.3-2.3,1l-0.1,0.1
	C37.5,24.2,37.2,24.4,36.8,24.4z M36.8,23.4L36.8,23.4z"/>
<path class="st11" d="M33,25c-0.6,0-1-0.4-1-1v-6H22v6c0,0.6-0.4,1-1,1s-1-0.4-1-1v-6c0-1.1,0.9-2,2-2h10c1.1,0,2,0.9,2,2v6
	C34,24.6,33.6,25,33,25z"/>
<path class="st11" d="M33,22H21c-0.6,0-1-0.4-1-1s0.4-1,1-1h12c0.6,0,1,0.4,1,1S33.6,22,33,22z"/>
<path class="st12" d="M63.6,52.6c-0.6,0-1-0.4-1-1c0-0.1,0-0.2,0-0.3c0.5-2.4,0-4.9-1.3-7c-0.3-0.5-0.2-1.1,0.2-1.4
	c0.5-0.3,1.1-0.2,1.4,0.2l0,0c1.7,2.5,2.3,5.7,1.6,8.7C64.4,52.3,64,52.6,63.6,52.6z"/>
<path class="st13" d="M65.8,73c-1.9,0.2-1.6-0.9-2.4-0.9s-0.9,1-2.7,0.8c-4.2-0.5-9.1-8.3-9.1-13.8c0-5.8,3.5-9.6,10.5-7.9
	c0.5,0.1,0.9,0.3,1.4,0.4c8.8-2,13,1.3,13,7.5C76.6,64.6,71.2,72.5,65.8,73z"/>
<path class="st10" d="M65.4,74c-0.8,0.1-1.6-0.3-2.1-0.8l-0.1,0.1c-0.7,0.6-1.7,0.8-2.6,0.7c-5-0.6-10-9.1-10-14.8
	c0-3.4,1.1-6.1,3.2-7.7s5-2,8.6-1.2c0.4,0.1,0.8,0.2,1.2,0.4c4.9-1,8.6-0.6,11,1.4c1.9,1.5,3,4,3,7.1c0,6.1-5.7,14.4-11.7,14.9
	L65.4,74z M63.4,71.1c0.5,0,1,0.2,1.3,0.7c0.2,0.2,0.3,0.3,1,0.2l0,0c4.9-0.4,9.9-7.8,9.9-12.9c0-2.5-0.7-4.4-2.2-5.6
	c-2-1.6-5.3-1.9-9.6-0.9c-0.2,0-0.4,0-0.5,0c-0.5-0.2-0.9-0.3-1.4-0.4C59,51.5,56.6,51.8,55,53s-2.4,3.3-2.4,6.1
	c0,5.1,4.7,12.3,8.2,12.8c0.4,0.1,0.8,0,1.2-0.3C62.4,71.3,62.9,71.1,63.4,71.1L63.4,71.1z"/>
<path class="st4" d="M68.1,69.8c-0.6,0-1-0.4-1-1c0-0.3,0.2-0.6,0.4-0.8c1-0.8,1.9-1.7,2.6-2.7c0.3-0.5,0.9-0.6,1.4-0.2
	c0.4,0.3,0.6,0.9,0.3,1.4c-0.8,1.2-1.9,2.3-3.1,3.2C68.5,69.7,68.3,69.7,68.1,69.8z"/>
<path class="st4" d="M54.8,61.9c-0.5,0-0.9-0.3-1-0.8c-0.1-0.3-0.1-0.6-0.1-0.9c-0.1-0.5,0.3-1,0.9-1.1c0,0,0,0,0,0
	c0.5-0.1,1,0.3,1.1,0.9c0,0,0,0,0,0c0,0.2,0.1,0.5,0.1,0.7c0.1,0.5-0.2,1.1-0.8,1.2L54.8,61.9z"/>
<path class="st4" d="M54.8,58.4h-0.2c-0.5-0.1-0.9-0.6-0.8-1.2c0.4-2.7,2.8-4.6,5.5-4.5c0.6,0,1,0.4,1,1s-0.4,1-1,1
	c-1.8-0.2-3.3,1.1-3.5,2.9c0,0,0,0,0,0C55.7,58.1,55.3,58.4,54.8,58.4z"/>
<path class="st14" d="M70.7,48c-3,1.2-5.3,1-6.9,1.4c0-1.6,0.4-4.6,3.3-5.8s6.3,0,7.4,1.2C74.1,45.7,73.7,46.8,70.7,48z"/>
<path class="st12" d="M63.9,50.4c-0.6,0-1-0.4-1-1c0-3.3,1.4-5.7,4-6.8c3.4-1.4,7.2-0.1,8.5,1.4c0.3,0.3,0.3,0.7,0.2,1
	c-0.6,1.4-1.3,2.5-4.4,3.8l0,0c-1.7,0.7-3.5,1.1-5.3,1.2c-0.6,0-1.1,0.1-1.7,0.2C64.1,50.4,64,50.4,63.9,50.4z M69.9,44
	c-0.8,0-1.6,0.1-2.3,0.5c-1.5,0.7-2.5,2.1-2.6,3.7l0.7-0.1c1.6-0.1,3.2-0.4,4.8-1c2-0.8,2.6-1.5,3-2.1C72.3,44.4,71.1,44,69.9,44
	L69.9,44z M70.7,48L70.7,48z"/>
</svg>
