<?xml version="1.0" encoding="utf-8"?>
<!-- Generator: Adobe Illustrator 21.1.0, SVG Export Plug-In . SVG Version: 6.00 Build 0)  -->
<svg version="1.1" id="Layer_1" xmlns="http://www.w3.org/2000/svg" xmlns:xlink="http://www.w3.org/1999/xlink" x="0px" y="0px"
	 viewBox="0 0 128 128" style="enable-background:new 0 0 128 128;" xml:space="preserve">
<style type="text/css">
	.st0{fill:#2BA2DC;}
	.st1{fill:#ECF0F3;}
	.st2{fill:#4FBF9F;}
	.st3{fill:#3DA69B;}
	.st4{fill:#FF4141;}
	.st5{fill:#D5D6DC;}
	.st6{fill:#ECF0F3;stroke:#6B6B6B;stroke-miterlimit:10;}
	.st7{fill:#D5D6DC;stroke:#6B6B6B;stroke-miterlimit:10;}
	.st8{fill:#606060;}
	.st9{fill:#647A8A;}
</style>
<g>
	<g>
		<g>
			<g>
				<path class="st0" d="M47.6,40.8L46,36.6l-5.7,2.1l1.6,4.3c1.5,4.1,1.7,8.6,0.5,12.8c-0.7,2.6-0.6,5.3,0.3,7.7L50.6,85
					c0.4,1.2,1.7,1.8,2.9,1.4l13.2-4.9c1.2-0.4,1.8-1.7,1.4-2.9l-7.9-21.4c-0.9-2.5-2.6-4.6-4.8-6.1C51.9,48.5,49.1,45,47.6,40.8z"
					/>
				<path class="st1" d="M45.6,34.9l-6.1,2.2c-0.1,0.1-0.2,0.2-0.2,0.4l1.2,3.2c0.1,0.1,0.2,0.2,0.3,0.2l6.1-2.2
					c0.1-0.1,0.2-0.2,0.2-0.4L45.9,35C45.9,34.9,45.7,34.8,45.6,34.9z"/>
			</g>
			<g>
				<g>
					<g>
						<path class="st2" d="M88.3,36.2c-0.3-0.2-0.6-0.3-0.9-0.3c-0.4,0.1-0.6,0.5-0.6,0.8c0,0.4,0.1,0.7,0.3,1.1
							c0.2,0.3,0.4,0.6,0.6,1c0.4,1,0.1,2-0.2,3c-0.4,1.2-0.8,2.3-1.3,3.4c-0.1,0.1-0.1,0.3-0.1,0.4l0.5,0.2
							c0.1-0.1,0.2-0.2,0.3-0.3c0.6-1,1.3-2.1,2-3c0.6-0.8,1.3-1.7,2.3-1.9c0.4-0.1,0.7-0.1,1.1-0.1s0.8-0.1,1.1-0.3
							c0.3-0.2,0.5-0.7,0.3-1c-0.1-0.3-0.4-0.4-0.7-0.6c0.5-0.1,0.9-0.3,1.3-0.5s0.7-0.6,0.8-1.1c0.1-0.5-0.2-1-0.7-1.1
							c0.8-0.3,1.3-1.2,1.2-2.1c0-0.3-0.2-0.6-0.5-0.7c-0.3-0.1-0.6,0-0.9-0.2c0.5-0.6,0.4-1.5-0.1-2.1l0,0l0,0
							c-0.8-0.1-1.6,0.4-1.8,1.1c-0.3-0.1-0.4-0.5-0.6-0.6c-0.2-0.2-0.6-0.1-0.8,0c-0.8,0.4-1.2,1.3-1,2.2c-0.4-0.3-0.9-0.2-1.3,0.1
							c-0.3,0.3-0.5,0.8-0.5,1.3C88,35.3,88.1,35.8,88.3,36.2z"/>
						<polygon class="st3" points="85.9,45.5 92.9,32.9 93,33 86.5,45.9 						"/>
					</g>
					<g>
						<g>
							<path class="st2" d="M98.3,45.5c0-0.5-0.3-1-0.7-1.2c-0.2-0.1-0.5-0.2-0.5-0.4c0-0.1,0-0.2,0-0.3c0.1-0.2,0-0.5-0.1-0.6
								c-0.1-0.2-0.3-0.3-0.6-0.3c-0.2,0-0.4,0.2-0.5,0c0-0.1,0-0.2,0-0.3c0.1-0.3-0.3-0.6-0.6-0.7c-0.3,0-0.7,0.1-1,0.2
								c-0.1,0-0.1,0-0.2,0S94,41.8,94,41.7c-0.2-0.3-0.6-0.3-1-0.3c-1.4,0-2.6,0.5-3.2,0.9c-0.3,0.2-0.6,0.5-1,0.8
								c-0.3,0.3-0.7,0.5-1,0.8c-0.6,0.6-1.1,1.2-1.6,1.9l1.2,0.6c0.1-0.1,0.2-0.1,0.3-0.2c0.5-0.2,1.1-0.4,1.5-0.1
								c0.3,0.1,0.5,0.4,0.7,0.6c0.2,0.2,0.4,0.5,0.7,0.6c0.3,0.1,0.7,0,0.8-0.2c0-0.1,0.1-0.1,0.1-0.2c0.2-0.1,0.4,0.1,0.5,0.2
								c0.2,0.3,0.4,0.5,0.7,0.6s0.7,0,0.8-0.3c0.1-0.1,0.1-0.3,0.2-0.4c0.1,0,0.1,0,0.2,0c0.3,0.1,0.6,0.3,0.9,0.4
								c0.3,0.1,0.7,0.2,0.9,0c0.2-0.2,0.2-0.4,0.4-0.6c0.3-0.3,0.7-0.2,1-0.3C97.9,46.5,98.3,46,98.3,45.5z"/>
							<path class="st3" d="M94.7,44.5c0,0-0.2-0.1-0.4-0.1c-0.3-0.1-0.7-0.2-1.2-0.3c-0.2,0-0.5-0.1-0.8-0.1s-0.6,0-0.9,0
								c-0.2,0-0.3,0-0.5,0s-0.3,0-0.5,0.1c-0.3,0-0.7,0.1-1,0.2c-0.2,0.1-0.3,0.1-0.5,0.2c-0.2,0.1-0.3,0.1-0.5,0.2
								c-0.1,0-0.1,0.1-0.2,0.1s-0.1,0.1-0.2,0.1S87.9,45,87.8,45s-0.1,0.1-0.2,0.1s-0.1,0.1-0.2,0.1s-0.1,0.1-0.2,0.1
								s-0.1,0.1-0.2,0.1c-0.1,0.1-0.1,0.1-0.2,0.1c-0.1,0.1-0.2,0.2-0.3,0.3l0.5,0.3l0.1-0.1l0.1-0.1c0.1,0,0.1-0.1,0.2-0.1
								s0.1-0.1,0.2-0.1s0.1-0.1,0.2-0.1s0.1-0.1,0.2-0.1s0.1-0.1,0.2-0.1s0.1-0.1,0.2-0.1s0.1-0.1,0.2-0.1c0.1-0.1,0.3-0.1,0.4-0.2
								c0.1-0.1,0.3-0.1,0.4-0.2c0.3-0.1,0.6-0.2,0.9-0.3c0.2,0,0.3-0.1,0.5-0.1s0.3,0,0.5-0.1c0.3,0,0.6,0,0.9,0s0.5,0,0.8,0.1
								c0.5,0.1,0.9,0.1,1.2,0.2c0.3,0.1,0.4,0.1,0.4,0.1L94.7,44.5z"/>
						</g>
						<g>
							<path class="st2" d="M82.1,41.9c0,0.1-0.1,0.1-0.1,0.2c-0.1,0.3,0,0.6,0.3,0.8s0.6,0.2,0.9,0.2s0.6,0,0.9,0.2
								c0.5,0.2,0.7,0.8,0.8,1.3c0,0.1,0,0.2,0,0.4l1.2,0.6c0.3-0.8,0.5-1.6,0.7-2.4c0.1-0.4,0.1-0.9,0.1-1.3c0-0.4,0.1-0.8,0.1-1.2
								c0-0.7-0.2-2-1.1-3.1c-0.2-0.3-0.4-0.7-0.8-0.7c-0.1,0-0.1,0-0.2,0s-0.1-0.1-0.1-0.2c-0.1-0.3-0.2-0.7-0.4-0.9
								c-0.2-0.2-0.7-0.3-0.9-0.1c-0.1,0.1-0.1,0.2-0.2,0.2c-0.2,0-0.2-0.2-0.3-0.4c-0.1-0.2-0.3-0.3-0.5-0.3s-0.4,0.1-0.6,0.3
								c-0.1,0.1-0.1,0.2-0.2,0.2c-0.2,0.1-0.4-0.1-0.6-0.2c-0.4-0.3-1-0.2-1.4,0.1C79.1,36,79,36.5,79.1,37c0.1,0.3,0.4,0.7,0.3,1
								c0,0.2-0.2,0.4-0.3,0.7c-0.1,0.3,0.2,0.6,0.5,0.8s0.6,0.3,0.9,0.5c0.1,0,0.1,0.1,0.1,0.2c0,0.1-0.1,0.3-0.2,0.4
								c-0.2,0.3,0,0.7,0.2,0.9s0.6,0.3,0.9,0.3C81.8,41.7,82.1,41.7,82.1,41.9z"/>
							<path class="st3" d="M83.4,39.2c0.2,0.2,0.3,0.4,0.5,0.6c0.2,0.2,0.3,0.5,0.5,0.7c0.1,0.1,0.1,0.3,0.2,0.4
								c0.1,0.1,0.1,0.3,0.2,0.4c0.1,0.3,0.2,0.6,0.3,0.9c0,0.2,0.1,0.3,0.1,0.5s0.1,0.3,0.1,0.5c0,0.1,0,0.2,0,0.2
								c0,0.1,0,0.2,0,0.2c0,0.1,0,0.2,0,0.2c0,0.1,0,0.1,0,0.2c0,0.1,0,0.1,0,0.2c0,0.1,0,0.1,0,0.2c0,0.1,0,0.1,0,0.2
								c0,0.1,0,0.1,0,0.2c0,0.1,0,0.1,0,0.2l0.5,0.3c0-0.1,0-0.2,0.1-0.4c0-0.1,0-0.1,0-0.2c0-0.1,0-0.2,0-0.2c0-0.1,0-0.2,0-0.2
								c0-0.1,0-0.2,0-0.2c0-0.1,0-0.2,0-0.2c0-0.1,0-0.2,0-0.2c0-0.1,0-0.2,0-0.2c0-0.1,0-0.2,0-0.2c0-0.2-0.1-0.3-0.1-0.5
								s-0.1-0.3-0.1-0.5c-0.1-0.3-0.2-0.6-0.4-0.9c-0.1-0.2-0.1-0.3-0.2-0.4c-0.1-0.1-0.2-0.3-0.2-0.4c-0.2-0.3-0.3-0.5-0.5-0.7
								s-0.4-0.4-0.5-0.6c-0.3-0.4-0.7-0.6-0.9-0.8c-0.2-0.2-0.4-0.3-0.4-0.3l-0.1,0.1c0,0,0.1,0.1,0.3,0.3
								C82.8,38.6,83.1,38.9,83.4,39.2z"/>
						</g>
					</g>
				</g>
				<path class="st4" d="M87.9,46.8c-0.1-0.1-0.2-0.2-0.4-0.3l-2.7-1.4C84.7,45,84.5,45,84.3,45c-2.4-0.1-5.1,1.6-6.5,4.4
					c-1.5,2.9-6.2,19.9-7.8,26c-0.1,0.5,0.5,0.9,0.9,0.5c4.1-4.8,15.5-18.2,17-21.1C89.5,51.8,89.4,48.7,87.9,46.8z"/>
				<path class="st5" d="M85.4,50.6c0,0,1.6-0.2,2.7,1.4C88.1,52,86.6,52,85.4,50.6z"/>
				<path class="st5" d="M80,49.4c0,0,1.6-0.2,2.7,1.4C82.7,50.8,81.1,50.8,80,49.4z"/>
				<path class="st5" d="M81.2,54.1c0,0,1.6-0.2,2.7,1.4C83.9,55.5,82.3,55.5,81.2,54.1z"/>
				<path class="st5" d="M77.1,56.7c0,0,1.6-0.2,2.7,1.4C79.8,58.2,78.2,58.2,77.1,56.7z"/>
				<path class="st5" d="M76.9,61.3c0,0,1.6-0.2,2.7,1.4C79.6,62.8,78,62.8,76.9,61.3z"/>
				<path class="st5" d="M74.1,64.6c0,0,1.2-0.1,2,1.1C76.1,65.6,75,65.6,74.1,64.6z"/>
				<path class="st5" d="M73.3,68.5c0,0,1.2-0.1,2,1.1C75.3,69.6,74.2,69.6,73.3,68.5z"/>
			</g>
			<g>
				
					<rect x="58.2" y="37.3" transform="matrix(4.041918e-03 -1 1 4.041918e-03 28.2031 105.8799)" class="st3" width="18.1" height="3"/>
				<polygon class="st2" points="73.6,30.2 70.6,29.5 67.3,43 64,29.5 61.1,30.2 65.4,47.9 67.3,47.4 69.2,47.9 				"/>
				<path class="st1" d="M73.4,55.4c-2.4-1.4-3.9-3.9-3.9-6.7v-1.8h-4.3v1.6v0.2c0,2.8-1.5,5.3-3.9,6.7c-2.9,1.7-4.8,4.7-4.8,8
					c0,5.3,4.9,9.6,10.9,9.6s10.9-4.3,10.9-9.6C78.2,60.1,76.3,57.1,73.4,55.4z"/>
				<path class="st4" d="M71.3,55.4c-1.6-1.4-2.6-3.9-2.6-6.7v-1.8h-2.8v1.8c0,2.8-1,5.3-2.6,6.7c-1.9,1.7-3.2,4.7-3.2,8
					c0,5.3,3.2,9.6,7.2,9.6s7.2-4.3,7.2-9.6C74.5,60.1,73.3,57.1,71.3,55.4z"/>
				<path class="st1" d="M67.9,48.7v-1.8h-1.1v1.8c0,2.8-0.4,5.3-1,6.7c-0.7,1.7-1.2,4.7-1.2,8c0,5.3,1.2,9.6,2.8,9.6
					c1.5,0,2.8-4.3,2.8-9.6c0-3.3-0.5-6.3-1.2-8C68.3,54,67.9,51.5,67.9,48.7z"/>
			</g>
		</g>
		<g>
			<path class="st6" d="M32.4,61.6l4.8,33.7c0.3,1.8,1.8,3.1,3.6,3.1H87c1.8,0,3.3-1.3,3.6-3.1l4.8-33.7
				C95.4,61.6,32.4,61.6,32.4,61.6z"/>
			<g>
				<path class="st7" d="M44.2,69.6c-1.4,0-2.5,1.3-2.3,2.8l1.9,17.9c0.1,1.3,1.3,2.3,2.6,2.3s2.2-1,2.1-2.3L47,72.4
					C46.9,70.8,45.6,69.6,44.2,69.6z"/>
				<path class="st7" d="M57.3,69.6c-1.4,0-2.6,1.3-2.5,2.8l0.8,17.9c0.1,1.3,1.1,2.3,2.4,2.3c1.3,0,2.3-1,2.3-2.3L60,72.4
					C59.9,70.8,58.7,69.6,57.3,69.6z"/>
				<path class="st7" d="M70.4,69.6c-1.4,0-2.6,1.3-2.7,2.8l-0.3,17.9c0,1.3,1,2.3,2.3,2.3s2.4-1,2.4-2.3l0.8-17.9
					C72.9,70.8,71.8,69.6,70.4,69.6z"/>
				<path class="st7" d="M83.5,69.6c-1.4,0-2.7,1.3-2.8,2.8l-1.4,17.9c-0.1,1.3,0.9,2.3,2.1,2.3c1.3,0,2.4-1,2.6-2.3l1.9-17.9
					C86,70.8,84.9,69.6,83.5,69.6z"/>
			</g>
		</g>
		<path class="st8" d="M96.6,55.1H31c-0.8,0-1.4,0.6-1.4,1.4V62c0,0.8,0.6,1.4,1.4,1.4h65.7c0.8,0,1.4-0.6,1.4-1.4v-5.5
			C98.1,55.7,97.4,55.1,96.6,55.1z"/>
		<path class="st9" d="M67.5,59c-1.2-1.1-2.9-1.2-3.9-0.1c-1,1-0.9,2.7,0.1,3.9l26.9,29.9c1.2,1.3,3.1,1.5,4.2,0.4l2.9-2.9
			c1.1-1.1,0.9-3-0.4-4.2L67.5,59z"/>
	</g>
</g>
</svg>
