<?xml version="1.0" encoding="utf-8"?>
<!-- Generator: Adobe Illustrator 21.1.0, SVG Export Plug-In . SVG Version: 6.00 Build 0)  -->
<svg version="1.1" id="Layer_1" xmlns="http://www.w3.org/2000/svg" xmlns:xlink="http://www.w3.org/1999/xlink" x="0px" y="0px"
	 viewBox="0 0 64 64" style="enable-background:new 0 0 64 64;" xml:space="preserve">
<style type="text/css">
	.st0{clip-path:url(#SVGID_2_);fill:#FA96A2;}
	.st1{clip-path:url(#SVGID_2_);fill:#FF4141;}
	.st2{clip-path:url(#SVGID_2_);fill:#ADD2ED;}
	.st3{clip-path:url(#SVGID_2_);fill:#E4EFF7;}
	.st4{clip-path:url(#SVGID_2_);fill:#7D959E;}
	.st5{clip-path:url(#SVGID_2_);fill:#FEDE31;}
	.st6{clip-path:url(#SVGID_2_);fill:#FCF3B3;}
	.st7{clip-path:url(#SVGID_2_);}
	.st8{fill:#396182;}
	.st9{fill:none;}
</style>
<g id="Layer_x0020_1">
	<g>
		<defs>
			<circle id="SVGID_1_" cx="32" cy="32" r="32"/>
		</defs>
		<clipPath id="SVGID_2_">
			<use xlink:href="#SVGID_1_"  style="overflow:visible;"/>
		</clipPath>
		<path id="_x31_" class="st0" d="M12.1,34.8h28.4c1.2,0,2.1,0.9,2.1,2.1v4c0,1.2-0.9,2.1-2.1,2.1H27.8c0-3-2.5-5.5-5.5-5.5
			S16.8,40,16.8,43h-4.7C11,43,10,42,10,40.9v-4C10,35.7,11,34.8,12.1,34.8z"/>
		<path class="st1" d="M42.6,40.7v0.2c0,1.2-0.9,2.1-2.1,2.1H27.8c0-0.8-0.2-1.6-0.5-2.3h14.9C42.4,40.7,42.5,40.7,42.6,40.7z
			 M17.3,40.7c-0.3,0.7-0.5,1.5-0.5,2.3h-4.7C11,43,10,42,10,40.9v-0.2c0.1,0,0.2,0,0.4,0H17.3z"/>
		<path class="st2" d="M52.7,18.3h-8.3c-1,0-1.8,0.8-1.8,1.8V41c0,1,0.8,1.8,1.8,1.8h2.2c0-3,2.5-5.5,5.5-5.5s5.5,2.5,5.5,5.5h2.1
			c1,0,1.8-0.8,1.8-1.8V29.7l-7.3-10.5C53.9,18.6,53.4,18.3,52.7,18.3z"/>
		<polygon class="st3" points="57.7,29.7 52,21.2 46,21.2 46,29.7 		"/>
		<circle class="st4" cx="52.1" cy="43" r="5.5"/>
		<circle class="st3" cx="52.1" cy="43" r="1.6"/>
		<circle class="st4" cx="22.3" cy="43" r="5.5"/>
		<circle class="st3" cx="22.3" cy="43" r="1.6"/>
		<rect x="15.9" y="15.5" class="st5" width="21.3" height="19.3"/>
		<rect x="15.9" y="15.5" class="st6" width="21.3" height="3.2"/>
		<polygon class="st6" points="24,15.5 29,15.5 29,21.8 26.6,20 24,21.8 		"/>
		<path class="st5" d="M58.7,34.9H61c0.3,0,0.5,0.2,0.5,0.5v2.4c0,0.3-0.2,0.5-0.5,0.5h-2.3c-0.3,0-0.5-0.2-0.5-0.5v-2.4
			C58.2,35.2,58.4,34.9,58.7,34.9z"/>
		<g class="st7">
			<path class="st8" d="M52.7,18.8h-8.3c-0.4,0-0.7,0.2-1,0.4c-0.2,0.2-0.4,0.6-0.4,1v20.9c0,0.4,0.2,0.7,0.4,1
				c0.2,0.2,0.6,0.4,1,0.4h1.7c0.1-1.5,0.8-2.8,1.7-3.7c1.1-1.1,2.6-1.8,4.2-1.8c1.7,0,3.2,0.7,4.2,1.8l0,0c1,1,1.6,2.3,1.7,3.7h1.6
				c0.4,0,0.7-0.2,1-0.4c0.2-0.2,0.4-0.6,0.4-1V29.8l-7.2-10.4c-0.1-0.2-0.3-0.3-0.5-0.4C53.2,18.9,53,18.8,52.7,18.8z M44.5,17.8
				h8.3c0.4,0,0.8,0.1,1.1,0.3c0.3,0.2,0.6,0.4,0.8,0.7L62,29.3c0.1,0.1,0.1,0.2,0.1,0.3V41c0,0.6-0.3,1.2-0.7,1.7
				c-0.4,0.4-1,0.7-1.7,0.7h-2.1c-0.3,0-0.5-0.2-0.5-0.5c0-1.4-0.5-2.6-1.4-3.5l0,0c-0.9-0.9-2.1-1.5-3.5-1.5s-2.6,0.6-3.5,1.5
				s-1.5,2.1-1.5,3.5c0,0.3-0.2,0.5-0.5,0.5h-2.2c-0.6,0-1.2-0.3-1.7-0.7s-0.7-1-0.7-1.7V20.2c0-0.6,0.3-1.2,0.7-1.7
				S43.8,17.8,44.5,17.8z"/>
			<path class="st8" d="M56.8,29.2l-5-7.5h-5.3v7.5H56.8z M52.5,20.9l5.6,8.5c0.1,0.1,0.1,0.2,0.1,0.3c0,0.3-0.2,0.5-0.5,0.5H46
				c-0.3,0-0.5-0.2-0.5-0.5v-8.5c0-0.3,0.2-0.5,0.5-0.5h6l0,0C52.2,20.7,52.4,20.7,52.5,20.9z"/>
			<path class="st8" d="M52.1,37c1.7,0,3.2,0.7,4.2,1.8l0,0c1.1,1.1,1.7,2.6,1.7,4.2c0,1.7-0.7,3.2-1.8,4.2S53.6,49,52,49
				c-1.7,0-3.1-0.7-4.2-1.8l0,0l0,0C46.7,46.1,46,44.6,46,43s0.7-3.2,1.8-4.2S50.5,37,52.1,37z M55.7,39.4c-0.9-0.9-2.1-1.5-3.5-1.5
				s-2.6,0.6-3.5,1.5s-1.5,2.1-1.5,3.5s0.6,2.6,1.5,3.5l0,0c0.9,0.9,2.2,1.5,3.5,1.5c1.4,0,2.6-0.6,3.5-1.5s1.5-2.1,1.5-3.5
				C57.1,41.6,56.6,40.4,55.7,39.4L55.7,39.4z"/>
			<path class="st8" d="M52.1,40.8c0.6,0,1.1,0.2,1.5,0.6s0.6,0.9,0.6,1.5S54,44,53.6,44.4S52.7,45,52.1,45s-1.1-0.2-1.5-0.6
				S50,43.5,50,43c0-0.6,0.2-1.1,0.6-1.5S51.5,40.8,52.1,40.8z M52.9,42.2c-0.2-0.2-0.5-0.3-0.8-0.3s-0.6,0.1-0.8,0.3S51,42.6,51,43
				c0,0.3,0.1,0.6,0.3,0.8s0.5,0.3,0.8,0.3s0.6-0.1,0.8-0.3s0.3-0.5,0.3-0.8C53.2,42.6,53.1,42.4,52.9,42.2z"/>
			<path class="st8" d="M22.3,37c1.7,0,3.2,0.7,4.2,1.8l0,0c1.1,1.1,1.7,2.6,1.7,4.2c0,1.7-0.7,3.2-1.8,4.2S23.8,49,22.2,49
				c-1.7,0-3.1-0.7-4.2-1.8l0,0l0,0c-1.1-1.1-1.8-2.6-1.8-4.2s0.7-3.2,1.8-4.2S20.7,37,22.3,37z M25.9,39.4C25,38.5,23.7,38,22.3,38
				c-1.4,0-2.6,0.6-3.5,1.5s-1.5,2.1-1.5,3.5s0.6,2.6,1.5,3.5l0,0c0.9,0.9,2.2,1.5,3.5,1.5c1.4,0,2.6-0.6,3.5-1.5s1.5-2.1,1.5-3.5
				S26.8,40.4,25.9,39.4L25.9,39.4z"/>
			<path class="st8" d="M22.3,40.8c0.6,0,1.1,0.2,1.5,0.6c0.4,0.4,0.6,0.9,0.6,1.5s-0.2,1.1-0.6,1.5S22.9,45,22.3,45
				s-1.1-0.2-1.5-0.6c-0.4-0.4-0.6-0.9-0.6-1.5s0.2-1.1,0.6-1.5C21.2,41.1,21.8,40.8,22.3,40.8z M23.1,42.2
				c-0.2-0.2-0.5-0.3-0.8-0.3s-0.6,0.1-0.8,0.3c-0.2,0.2-0.3,0.5-0.3,0.8s0.1,0.6,0.3,0.8c0.2,0.2,0.5,0.3,0.8,0.3s0.6-0.1,0.8-0.3
				c0.2-0.2,0.3-0.5,0.3-0.8C23.5,42.6,23.3,42.4,23.1,42.2z"/>
			<path class="st8" d="M46,33c-0.3,0-0.5-0.2-0.5-0.5S45.7,32,46,32h1.7c0.3,0,0.5,0.2,0.5,0.5S48,33,47.7,33H46z"/>
			<path class="st8" d="M16.4,34.8c0,0.3-0.2,0.5-0.5,0.5c-0.3,0-0.5-0.2-0.5-0.5V15.5c0-0.3,0.2-0.5,0.5-0.5h21.3
				c0.3,0,0.5,0.2,0.5,0.5v19.3c0,0.3-0.2,0.5-0.5,0.5s-0.5-0.2-0.5-0.5V16H16.4V34.8z"/>
			<path class="st8" d="M28.5,15.5c0-0.3,0.2-0.5,0.5-0.5s0.5,0.2,0.5,0.5v6.3c0,0.3-0.2,0.5-0.5,0.5c-0.1,0-0.2,0-0.3-0.1l-2.2-1.5
				l-2.2,1.5c-0.2,0.2-0.5,0.1-0.7-0.1c-0.1-0.1-0.1-0.2-0.1-0.3l0,0v-6.3c0-0.3,0.2-0.5,0.5-0.5s0.5,0.2,0.5,0.5v5.3l1.7-1.2
				c0.2-0.1,0.4-0.1,0.6,0l1.7,1.2V15.5z"/>
			<path class="st8" d="M6.6,25c-0.3,0-0.5-0.2-0.5-0.5S6.3,24,6.6,24h5.6c0.3,0,0.5,0.2,0.5,0.5S12.5,25,12.2,25H6.6z"/>
			<path class="st8" d="M1.6,29.7c-0.3,0-0.5-0.2-0.5-0.5s0.2-0.5,0.5-0.5H2c0.3,0,0.5,0.2,0.5,0.5S2.3,29.7,2,29.7H1.6z M4.9,29.7
				c-0.3,0-0.5-0.2-0.5-0.5s0.2-0.5,0.5-0.5h7.3c0.3,0,0.5,0.2,0.5,0.5s-0.2,0.5-0.5,0.5H4.9z"/>
			<path class="st8" d="M61,38.9h-2.3c-0.3,0-0.5-0.1-0.7-0.3l0,0c-0.2-0.2-0.3-0.4-0.3-0.7v-2.4c0-0.3,0.1-0.5,0.3-0.7
				s0.4-0.3,0.7-0.3H61v1h-2.3l0,0l0,0v2.4l0,0l0,0H61V38.9z"/>
			<path class="st9" d="M16.9,43h-4.7C11,43,10,42,10,40.9v-4c0-1.2,0.9-2.1,2.1-2.1h28.4c1.2,0,2.1,0.9,2.1,2.1 M42.6,40.9
				c0,1.2-0.9,2.1-2.1,2.1H27.8"/>
			<path class="st8" d="M16.9,42.5c0.3,0,0.5,0.2,0.5,0.5s-0.2,0.5-0.5,0.5h-4.7c-0.7,0-1.4-0.3-1.8-0.8l0,0
				c-0.5-0.5-0.8-1.1-0.8-1.8v-4c0-0.7,0.3-1.4,0.8-1.8l0,0c0.5-0.5,1.1-0.8,1.8-0.8h28.4c0.7,0,1.4,0.3,1.8,0.8l0,0l0,0
				c0.5,0.5,0.8,1.1,0.8,1.8c0,0.3-0.2,0.5-0.5,0.5s-0.5-0.2-0.5-0.5c0-0.4-0.2-0.8-0.5-1.1l0,0c-0.3-0.3-0.7-0.5-1.1-0.5H12.1
				c-0.4,0-0.8,0.2-1.1,0.5l0,0c-0.3,0.3-0.5,0.7-0.5,1.1v4c0,0.4,0.2,0.8,0.5,1.1l0,0c0.3,0.3,0.7,0.5,1.1,0.5H16.9z M42.1,40.9
				c0-0.3,0.2-0.5,0.5-0.5s0.5,0.2,0.5,0.5c0,0.7-0.3,1.4-0.8,1.8c-0.5,0.5-1.1,0.8-1.8,0.8H27.8c-0.3,0-0.5-0.2-0.5-0.5
				s0.2-0.5,0.5-0.5h12.7c0.4,0,0.8-0.2,1.1-0.5C41.9,41.7,42.1,41.3,42.1,40.9z"/>
			<path class="st8" d="M30.9,31.9c-0.3,0-0.5-0.2-0.5-0.5s0.2-0.5,0.5-0.5h2.6c0.3,0,0.5,0.2,0.5,0.5s-0.2,0.5-0.5,0.5H30.9z"/>
			<path class="st8" d="M13.7,48.9c-0.3,0-0.5-0.2-0.5-0.5s0.2-0.5,0.5-0.5h24.1c0.3,0,0.5,0.2,0.5,0.5s-0.2,0.5-0.5,0.5H13.7z
				 M41.6,48.9c-0.3,0-0.5-0.2-0.5-0.5s0.2-0.5,0.5-0.5h0.8c0.3,0,0.5,0.2,0.5,0.5s-0.2,0.5-0.5,0.5H41.6z M44.3,48.9
				c-0.3,0-0.5-0.2-0.5-0.5s0.2-0.5,0.5-0.5h15.2c0.3,0,0.5,0.2,0.5,0.5s-0.2,0.5-0.5,0.5H44.3z"/>
		</g>
	</g>
	<path class="st9" d="M32,0C14.3,0,0,14.3,0,32s14.3,32,32,32s32-14.3,32-32S49.7,0,32,0z"/>
</g>
</svg>
