<?xml version="1.0" encoding="utf-8"?>
<!-- Generator: Adobe Illustrator 21.1.0, SVG Export Plug-In . SVG Version: 6.00 Build 0)  -->
<svg version="1.1" id="Layer_1" xmlns="http://www.w3.org/2000/svg" xmlns:xlink="http://www.w3.org/1999/xlink" x="0px" y="0px"
	 viewBox="0 0 512 512" style="enable-background:new 0 0 512 512;" xml:space="preserve">
<style type="text/css">
	.st0{fill:#606060;}
	.st1{fill:#FF4141;}
</style>
<path id="XMLID_882_" class="st0" d="M266.9,330.5c-12.3,0-22.2,10-22.2,22.2s10,22.2,22.2,22.2c12.3,0,22.2-10,22.2-22.2
	S279.1,330.5,266.9,330.5z M266.9,361.6c-4.9,0-8.9-4-8.9-8.9s4-8.9,8.9-8.9s8.9,4,8.9,8.9C275.7,357.6,271.7,361.6,266.9,361.6z"/>
<path id="XMLID_890_" class="st0" d="M266.9,347.2c-3.1,0-5.5,2.5-5.5,5.5c0,3.1,2.5,5.5,5.5,5.5c3.1,0,5.5-2.5,5.5-5.5
	S269.9,347.2,266.9,347.2z"/>
<path id="XMLID_893_" class="st1" d="M408.3,345h-4.4v-39.6c0-1.5-0.6-3-1.8-4.1L380,274c-1-1-2.4-1.5-3.9-1.5h-39.2V345h-43.8
	c0.7,2.5,1.1,5.1,1.1,7.7s-0.4,5.3-1.1,7.7h53c-0.7-2.5-1.1-5.1-1.1-7.7c0-15.1,12.3-27.4,27.4-27.4s27.4,12.3,27.4,27.4
	c0,2.7-0.4,5.3-1.1,7.7h9.7c4.3,0,7.7-3.5,7.7-7.7C416,348.5,412.5,345,408.3,345z M358.2,312.4h-7c-0.9,0-1.7-0.7-1.7-1.7
	c0-0.9,0.7-1.7,1.7-1.7h7c0.9,0,1.7,0.7,1.7,1.7C359.8,311.6,359.1,312.4,358.2,312.4z M347.5,305.8v-26.7h28.2l21.5,26.7H347.5z"/>
<path id="XMLID_895_" class="st0" d="M372.4,347.2c-3.1,0-5.5,2.5-5.5,5.5c0,3.1,2.5,5.5,5.5,5.5c3.1,0,5.5-2.5,5.5-5.5
	S375.4,347.2,372.4,347.2z"/>
<path id="XMLID_898_" class="st0" d="M372.4,330.5c-12.3,0-22.2,10-22.2,22.2s10,22.2,22.2,22.2s22.2-10,22.2-22.2
	S384.6,330.5,372.4,330.5z M372.4,361.6c-4.9,0-8.9-4-8.9-8.9s4-8.9,8.9-8.9s8.9,4,8.9,8.9C381.2,357.6,377.2,361.6,372.4,361.6z"/>
<path id="XMLID_899_" class="st1" d="M217.7,344.9c-3,0.3-6,0.4-9,0.4c-52.8,0-95.6-42.8-95.6-95.6s42.8-95.6,95.6-95.6
	s95.6,42.8,95.6,95.6c0,0.6,0,1.3,0,1.9h16.1c0.3,0,0.7,0,1,0c0-0.7,0-1.3,0-2c0-62.2-50.5-112.7-112.7-112.7
	C146.5,137,96,187.5,96,249.7s50.5,112.7,112.7,112.7c3.4,0,6.8-0.2,10.1-0.5c-2.2-2.4-3.6-5.7-3.6-9.2
	C215.2,349.8,216.2,347.1,217.7,344.9z"/>
<path id="XMLID_900_" class="st1" d="M208.7,162.5c-1.5,0-2.7,1.2-2.7,2.7v5c0,1.5,1.2,2.7,2.7,2.7l0,0c1.5,0,2.7-1.2,2.7-2.7v-5
	C211.4,163.7,210.2,162.5,208.7,162.5L208.7,162.5z"/>
<path id="XMLID_901_" class="st1" d="M208.7,336.9c1.5,0,2.7-1.2,2.7-2.7v-5c0-1.5-1.2-2.7-2.7-2.7l0,0c-1.5,0-2.7,1.2-2.7,2.7v5
	C206,335.7,207.2,336.9,208.7,336.9L208.7,336.9z"/>
<path id="XMLID_902_" class="st1" d="M175.3,169.1L175.3,169.1c-1.4,0.6-2,2.2-1.5,3.5l1.9,4.6c0.6,1.4,2.2,2,3.5,1.5l0,0
	c1.4-0.6,2-2.2,1.5-3.5l-1.9-4.6C178.3,169.2,176.7,168.6,175.3,169.1z"/>
<path id="XMLID_903_" class="st1" d="M154.4,195.4L154.4,195.4c1.1-1.1,1.1-2.8,0-3.8l-3.6-3.6c-1.1-1.1-2.8-1.1-3.8,0l0,0
	c-1.1,1.1-1.1,2.8,0,3.8l3.6,3.6C151.6,196.5,153.3,196.5,154.4,195.4z"/>
<path id="XMLID_904_" class="st1" d="M136.3,216.8l-4.6-1.9c-1.4-0.6-3,0.1-3.5,1.5c-0.6,1.4,0.1,3,1.5,3.5l4.6,1.9
	c1.4,0.6,3-0.1,3.5-1.5l0,0C138.3,218.9,137.7,217.4,136.3,216.8z"/>
<path id="XMLID_905_" class="st1" d="M131.9,249.7L131.9,249.7c0-1.5-1.2-2.7-2.7-2.7h-5c-1.5,0-2.7,1.2-2.7,2.7l0,0
	c0,1.5,1.2,2.7,2.7,2.7h5C130.7,252.4,131.9,251.2,131.9,249.7z"/>
<path id="XMLID_906_" class="st1" d="M295.1,251.6c0.5-0.5,0.8-1.2,0.8-1.9l0,0c0-1.5-1.2-2.7-2.7-2.7h-5c-1.5,0-2.7,1.2-2.7,2.7
	l0,0c0,0.8,0.3,1.4,0.8,1.9H295.1z"/>
<path id="XMLID_920_" class="st1" d="M131.6,284.6l4.6-1.9c1.4-0.6,2-2.2,1.5-3.5c-0.6-1.4-2.2-2-3.5-1.5l-4.6,1.9
	c-1.4,0.6-2,2.2-1.5,3.5C128.7,284.5,130.3,285.1,131.6,284.6z"/>
<path id="XMLID_921_" class="st1" d="M289.3,216.3c-0.6-1.4-2.2-2-3.5-1.5l-4.6,1.9c-1.4,0.6-2,2.2-1.5,3.5l0,0
	c0.6,1.4,2.2,2,3.5,1.5l4.6-1.9C289.2,219.3,289.9,217.7,289.3,216.3z"/>
<path id="XMLID_922_" class="st1" d="M147,311.4L147,311.4c1.1,1.1,2.8,1.1,3.8,0l3.6-3.6c1.1-1.1,1.1-2.8,0-3.8l0,0
	c-1.1-1.1-2.8-1.1-3.8,0l-3.6,3.6C146,308.6,146,310.3,147,311.4z"/>
<path id="XMLID_923_" class="st1" d="M266.6,188l-3.6,3.6c-1.1,1.1-1.1,2.8,0,3.8l0,0c1.1,1.1,2.8,1.1,3.8,0l3.6-3.6
	c1.1-1.1,1.1-2.8,0-3.8S267.6,187,266.6,188z"/>
<path id="XMLID_924_" class="st1" d="M175.3,330.3c1.4,0.6,3-0.1,3.5-1.5l1.9-4.6c0.6-1.4-0.1-3-1.5-3.5l0,0c-1.4-0.6-3,0.1-3.5,1.5
	l-1.9,4.6C173.3,328.2,173.9,329.7,175.3,330.3L175.3,330.3z"/>
<path id="XMLID_925_" class="st1" d="M242.1,169.1c-1.4-0.6-3,0.1-3.5,1.5l-1.9,4.6c-0.6,1.4,0.1,3,1.5,3.5l0,0
	c1.4,0.6,3-0.1,3.5-1.5l1.9-4.6C244.1,171.3,243.5,169.7,242.1,169.1L242.1,169.1z"/>
<path id="XMLID_930_" class="st1" d="M222.5,249.3c0-5.4-3.2-10.1-7.9-12.1V194c0-3-2.4-5.4-5.4-5.4s-5.4,2.4-5.4,5.4v43.1
	c-1.9,0.9-3.6,2.1-4.9,3.8L158,215.7c-1.8-1.1-4.2-0.6-5.3,1.3s-0.6,4.2,1.3,5.3l42,25.9c0,0.4-0.1,0.8-0.1,1.2c0,3.1,1.1,6,2.9,8.3
	l-35.7,39.2c-1.4,1.5-1.3,3.9,0.3,5.3s3.9,1.3,5.3-0.3L205,262c1.3,0.5,2.8,0.7,4.2,0.7c2.6,0,5-0.7,7-2l5.2,3.2
	c0.4-2.7,1.6-5.1,3.2-7.1l-3.3-2C222,253.1,222.5,251.3,222.5,249.3z M209.2,255c-3.1,0-5.6-2.5-5.6-5.6s2.5-5.6,5.6-5.6
	s5.6,2.5,5.6,5.6S212.3,255,209.2,255z"/>
<path id="XMLID_932_" class="st1" d="M242.1,339.3c0.2-0.1,0.4-0.2,0.6-0.2h-0.5C242.2,339.1,242.1,339.2,242.1,339.3z"/>
<path id="XMLID_939_" class="st0" d="M329.6,266.8c0-5.1-4.1-9.2-9.2-9.2h-84.7c-0.2,0-0.3,0-0.5,0c-4.5,0.2-8,4.1-8,8.7v72h16.2
	c4.8-7.7,13.4-12.9,23.2-12.9c9.8,0,18.4,5.2,23.2,12.9h39.8V266.8z"/>
</svg>
