<?xml version="1.0" encoding="utf-8"?>
<!-- Generator: Adobe Illustrator 21.1.0, SVG Export Plug-In . SVG Version: 6.00 Build 0)  -->
<svg version="1.1" id="Layer_1" xmlns="http://www.w3.org/2000/svg" xmlns:xlink="http://www.w3.org/1999/xlink" x="0px" y="0px"
	 viewBox="0 0 100 100" style="enable-background:new 0 0 100 100;" xml:space="preserve">
<style type="text/css">
	.st0{fill:#FFCE00;}
	.st1{fill:#F3F3F3;}
	.st2{fill:#26A6D1;}
	.st3{fill:#FF4141;}
	.st4{fill:#DFE1E2;}
	.st5{fill:#FEDE31;}
	.st6{fill:#FFEC9C;}
</style>
<path class="st0" d="M89,81.3V57L50,38L11,57v24.3C20.2,92.7,34.2,100,50,100S79.8,92.7,89,81.3z"/>
<path class="st1" d="M19,27h63c1.1,0,2,0.9,2,2v46c0,1.1-0.9,2-2,2H19c-1.1,0-2-0.9-2-2V29C17,27.9,17.9,27,19,27z"/>
<path class="st2" d="M38,32h7l4-5h-7L38,32z M68,27l-4,5h7l4-5H68z M17,29v3h3l4-5h-5C17.9,27,17,27.9,17,29z"/>
<path class="st3" d="M51,32h7l4-5h-7L51,32z M25,32h7l4-5h-7L25,32z M82,27h-1l-4,5h7v-3C84,27.9,83.1,27,82,27z"/>
<path class="st4" d="M73.5,47h-17c-0.8,0-1.5,0.7-1.5,1.5s0.7,1.5,1.5,1.5h17c0.8,0,1.5-0.7,1.5-1.5S74.3,47,73.5,47z M70.5,53h-14
	c-0.8,0-1.5,0.7-1.5,1.5s0.7,1.5,1.5,1.5h14c0.8,0,1.5-0.7,1.5-1.5S71.3,53,70.5,53z M39,49l0.7,3.6L34,44l-8,12c0,1.1,5.1,2,11.5,2
	S49,57.1,49,56l-7-10L39,49z M40,44c1.1,0,2-0.9,2-2s-0.9-2-2-2s-2,0.9-2,2S38.9,44,40,44z M56.5,44h17c0.8,0,1.5-0.7,1.5-1.5
	S74.3,41,73.5,41h-17c-0.8,0-1.5,0.7-1.5,1.5S55.7,44,56.5,44z"/>
<path class="st5" d="M89,81.3V57L50,76L11,57v24.3C20.2,92.7,34.2,100,50,100S79.8,92.7,89,81.3z"/>
<path class="st6" d="M89,57L20.6,90.4c8.2,6,18.4,9.6,29.4,9.6l0,0c15.8,0,29.8-7.3,39-18.7V57z"/>
</svg>
