<?xml version="1.0" encoding="utf-8"?>
<!-- Generator: Adobe Illustrator 21.1.0, SVG Export Plug-In . SVG Version: 6.00 Build 0)  -->
<svg version="1.1" id="Слой_1" xmlns="http://www.w3.org/2000/svg" xmlns:xlink="http://www.w3.org/1999/xlink" x="0px" y="0px"
	 viewBox="0 0 128 128" style="enable-background:new 0 0 128 128;" xml:space="preserve">
<style type="text/css">
	.st0{fill:#46B19B;}
	.st1{fill:#F6CA41;}
	.st2{fill:#FF4141;}
	.st3{fill:#FFFFFF;}
</style>
<path class="st0" d="M117.9,103.1H10.1c-4.5,0-8.1-3.6-8.1-8.1V33.1c0-4.5,3.6-8.1,8.1-8.1h107.8c4.5,0,8.1,3.6,8.1,8.1v61.9
	C126,99.4,122.4,103.1,117.9,103.1z"/>
<g>
	<path class="st1" d="M54.7,64.1c0-15.4,12.5-27.9,27.9-27.9c15.4,0,27.9,12.5,27.9,27.9C110.5,79.5,98,92,82.6,92
		C67.2,92,54.7,79.5,54.7,64.1L54.7,64.1z"/>
	<path class="st2" d="M63.9,43.3c0,0-1.5,1.3-2.4,2.5h5c0,0,1.7,1.8,2.3,3.2h-9.7c0,0-0.9,1.5-1.6,2.7h12.8c0,0,1.2,2.2,1.4,3.4
		H56.2c0,0-0.5,1.5-0.8,2.6l17.1,0c0.5,2.1,1.6,8.4-0.7,15.3l-15.5,0c0.2,0.8,0.7,1.9,1.1,2.8h13.3c-0.5,1.1-1.3,2.5-1.8,3.2l-9.8,0
		c0.5,0.8,1.3,2,1.9,2.6l6,0c-1.1,1.6-3,3.2-3,3.2h0l0.1,0C59,89.3,52.5,92,45.3,92c-15.4,0-27.9-12.5-27.9-27.9
		c0-15.4,12.5-27.9,27.9-27.9C52.5,36.2,59,38.9,63.9,43.3L63.9,43.3z"/>
	<g>
		<path class="st3" d="M50.7,59.7l-0.5,2.5l-2.4-0.1c0,0-1.2,0.3-1.2,0.8c0,0.5,0.9,1.2,2.3,1.7c1.4,0.6,1.4,2.2,1.3,3.3
			c-0.1,1.1-0.3,3.4-4.2,3.5c-2.3,0.1-3.5-0.4-3.5-0.4l0.5-2.6c0,0,2.9,0.8,3.5,0.3c0.6-0.4,1.4-1.2,0.2-1.7
			c-1.2-0.5-3.2-1.4-3.2-3.4c0-2.1,0.8-3.2,2.1-3.8C46.9,59.3,49.1,59.4,50.7,59.7L50.7,59.7z"/>
		<polygon class="st3" points="31.4,71.2 28.6,71.2 30.2,61.4 26.7,71.1 24.7,71.1 24.3,61 22.5,71.2 19.8,71.2 22.4,56.3 
			25.6,56.3 26.8,64.9 30.6,56.3 33.9,56.3 		"/>
		<path class="st3" d="M53.3,71.4c-0.9,0-1.6-0.2-2-0.6c-0.4-0.4-0.6-1-0.6-1.9c0-0.2,0-0.4,0-0.6c0-0.2,0.1-0.4,0.1-0.7l1.7-9.5
			h2.7L54.8,60h2.5l-0.4,2.4h-2.5l-0.7,4.1c0,0.3-0.1,0.5-0.1,0.8c0,0.3-0.1,0.5-0.1,0.7c0,0.4,0.1,0.7,0.2,0.8
			c0.2,0.1,0.4,0.2,0.8,0.2c0.1,0,0.3,0,0.5-0.1c0.2-0.1,0.4-0.1,0.6-0.2h0.2l-0.4,2.4c-0.3,0.1-0.6,0.2-0.9,0.2
			C54.1,71.4,53.7,71.4,53.3,71.4L53.3,71.4z"/>
		<path class="st3" d="M72.4,63.1c-0.6-0.5-1.9-0.4-2.1,0.6L69,71.2h-2.7L68.2,60h2.7l-0.1,0.9c0.5-0.5,1.1-0.9,2.5-0.9
			C73.4,60,72.5,61.6,72.4,63.1L72.4,63.1z"/>
		<path class="st3" d="M77.4,71.5c-1.5,0-2.6-0.5-3.4-1.5c-0.8-1-1.2-2.4-1.2-4.3c0-1.5,0.2-2.8,0.5-4c0.4-1.2,0.9-2.2,1.5-3.1
			c0.6-0.8,1.3-1.5,2.2-2c0.8-0.5,1.7-0.7,2.7-0.7c0.7,0,1.5,0.1,2.1,0.3c0.3,0.1,0.9,0.4,0.9,0.4l-0.6,3.5
			c-0.3-0.4-0.6-0.7-0.9-0.9c-0.5-0.3-1-0.5-1.6-0.5c-1.1,0-2,0.6-2.7,1.8c-0.7,1.2-1.1,2.7-1.1,4.6c0,1.2,0.2,2.1,0.6,2.6
			c0.4,0.5,1,0.8,1.7,0.8c0.7,0,1.3-0.2,1.9-0.5c0.3-0.2,0.6-0.4,0.8-0.6l-0.6,3.4c0,0-0.3,0.2-0.5,0.2c-0.4,0.1-0.7,0.2-1,0.3
			C78.4,71.4,78,71.5,77.4,71.5L77.4,71.5z"/>
		<path class="st3" d="M38,70.8c-0.1,0.1-0.2,0.2-0.3,0.2c-0.3,0.2-0.5,0.3-0.8,0.4c-0.2,0.1-0.6,0.1-1,0.1c-0.7,0-1.3-0.3-1.7-0.8
			c-0.4-0.5-0.7-1.2-0.7-2.1c0-0.9,0.2-1.6,0.5-2.3c0.3-0.6,0.8-1.1,1.4-1.5c0.6-0.4,1.3-0.6,2-0.7l0.5-0.1c0.6-0.1,1.3-0.2,2-0.2
			c0-0.1,0-0.1,0-0.2c0-0.1,0-0.2,0-0.3c0-0.5-0.2-0.8-0.5-1c-0.3-0.2-0.8-0.3-1.5-0.3H38c-0.4,0-0.8,0.1-1.3,0.3
			c-0.5,0.2-0.9,0.4-1.2,0.5h-0.2l0.4-2.7c0.3-0.1,0.8-0.2,1.4-0.4c0.3-0.1,0.6-0.1,0.9-0.2c0.3-0.1,0.7-0.1,1-0.1
			c1.3,0,2.2,0.2,2.9,0.7c0.6,0.5,0.9,1.2,0.9,2.2c0,0.1,0,0.3,0,0.5c0,0.2,0,0.4-0.1,0.6l-1.3,7.7h-2.6l0.2-1.2
			c-0.2,0.2-0.4,0.3-0.6,0.5C38.2,70.6,38.1,70.7,38,70.8L38,70.8z M38,66.2c-0.3,0.1-0.5,0.1-0.7,0.2c-0.3,0.1-0.5,0.4-0.7,0.6
			c-0.2,0.3-0.2,0.6-0.2,1.1c0,0.4,0.1,0.7,0.3,0.8c0.2,0.1,0.5,0.2,0.9,0.2c0.1,0,0.3,0,0.4-0.1c0.1,0,0.3-0.1,0.4-0.1
			c0.3-0.2,0.6-0.4,0.8-0.6l0.4-2.4c-0.5,0.1-0.9,0.1-1.3,0.2C38.2,66.1,38.1,66.1,38,66.2L38,66.2z"/>
		<path class="st3" d="M61,61.9c-0.4,0.1-0.7,0.2-0.9,0.5c-0.4,0.4-0.7,1-0.9,1.7H61h1.8c0-0.1,0-0.2,0-0.3c0-0.1,0-0.2,0-0.3
			c0-0.5-0.1-0.9-0.4-1.2c-0.2-0.3-0.6-0.4-1-0.4C61.3,61.8,61.1,61.9,61,61.9L61,61.9z M61,69h0.4c0.6,0,1.1-0.1,1.7-0.4
			c0.5-0.3,1-0.6,1.3-0.9h0.3l-0.5,2.9c-0.5,0.3-1.1,0.5-1.6,0.7c-0.5,0.1-1,0.2-1.6,0.2h-0.2c-1.4,0-2.5-0.4-3.3-1.3
			c-0.8-0.8-1.1-2-1.1-3.5c0-1,0.1-2,0.4-2.8c0.2-0.9,0.6-1.6,1.1-2.3c0.5-0.6,1-1.1,1.7-1.5c0.5-0.2,1-0.4,1.5-0.5
			c0.2,0,0.5,0,0.7,0c1.2,0,2.2,0.3,2.8,1c0.6,0.7,0.9,1.7,0.9,3c0,0.4,0,0.9-0.1,1.3c-0.1,0.4-0.2,0.9-0.3,1.3H61h-2.1v0.1v0.1
			c0,0.8,0.2,1.4,0.6,1.8C59.9,68.7,60.4,68.9,61,69L61,69z"/>
		<path class="st3" d="M86,70.8c-0.1,0.1-0.2,0.2-0.3,0.2c-0.3,0.2-0.5,0.3-0.8,0.4c-0.2,0.1-0.6,0.1-1,0.1c-0.7,0-1.3-0.3-1.7-0.8
			c-0.4-0.5-0.6-1.2-0.6-2.1c0-0.9,0.2-1.6,0.5-2.3c0.3-0.6,0.8-1.1,1.4-1.5c0.6-0.4,1.3-0.6,2-0.7c0.2,0,0.4-0.1,0.6-0.1
			c0.6-0.1,1.3-0.2,2-0.2c0-0.1,0-0.1,0-0.2c0-0.1,0-0.2,0-0.3c0-0.5-0.2-0.8-0.5-1c-0.3-0.2-0.8-0.3-1.5-0.3H86
			c-0.4,0-0.9,0.1-1.3,0.3c-0.5,0.2-0.9,0.4-1.2,0.5h-0.2l0.4-2.7c0.3-0.1,0.8-0.2,1.5-0.4c0.3-0.1,0.6-0.1,0.9-0.2
			c0.3-0.1,0.7-0.1,1-0.1c1.3,0,2.2,0.2,2.9,0.7c0.6,0.5,0.9,1.2,0.9,2.2c0,0.1,0,0.3,0,0.5c0,0.2,0,0.4-0.1,0.6l-1.3,7.7h-2.6
			l0.2-1.2c-0.2,0.2-0.4,0.3-0.6,0.5L86,70.8L86,70.8z M86,66.2c-0.3,0.1-0.5,0.1-0.7,0.2c-0.3,0.1-0.5,0.4-0.7,0.6
			c-0.2,0.3-0.2,0.6-0.2,1.1c0,0.4,0.1,0.7,0.3,0.8c0.2,0.1,0.5,0.2,0.9,0.2c0.1,0,0.3,0,0.4-0.1c0.1,0,0.3-0.1,0.4-0.1
			c0.3-0.2,0.6-0.4,0.8-0.6l0.4-2.4c-0.5,0.1-0.9,0.1-1.3,0.2C86.2,66.1,86.1,66.1,86,66.2L86,66.2z"/>
		<path class="st3" d="M97.2,63.1c-0.6-0.5-1.9-0.4-2.1,0.6l-1.3,7.5h-2.7L93,60h2.7l-0.1,0.9c0.5-0.5,1.1-0.9,2.5-0.9
			C98.2,60,97.3,61.6,97.2,63.1L97.2,63.1z"/>
		<path class="st3" d="M102.5,62.4c-0.1,0.1-0.3,0.2-0.4,0.2c-0.4,0.2-0.6,0.6-0.9,1c-0.2,0.4-0.4,0.9-0.5,1.5
			c-0.1,0.6-0.2,1.2-0.2,1.8c0,0.7,0.1,1.2,0.3,1.5c0.2,0.3,0.6,0.5,1.1,0.5c0.2,0,0.4,0,0.5-0.1c0.1,0,0.2-0.1,0.2-0.1
			c0.3-0.2,0.5-0.3,0.7-0.5l0.9-5.5c-0.2-0.1-0.3-0.2-0.6-0.2c-0.2-0.1-0.4-0.1-0.6-0.1C102.9,62.2,102.7,62.3,102.5,62.4
			L102.5,62.4z M102.5,70.6c-0.2,0.2-0.4,0.4-0.7,0.5c-0.2,0.1-0.4,0.2-0.6,0.3c-0.2,0.1-0.5,0.1-0.8,0.1c-0.8,0-1.5-0.4-1.9-1
			c-0.5-0.7-0.7-1.7-0.7-3c0-1.1,0.1-2.1,0.4-3c0.2-0.9,0.6-1.8,1-2.5c0.4-0.7,0.9-1.3,1.5-1.7c0.6-0.4,1.1-0.6,1.8-0.6h0.1
			c0.5,0,0.9,0.1,1.2,0.2c0.3,0.1,0.7,0.3,1,0.6l0.6-3.9h2.7l-2.4,14.7h-2.7l0.2-1.2C102.9,70.2,102.7,70.4,102.5,70.6L102.5,70.6z"
			/>
	</g>
</g>
</svg>
