<?xml version="1.0" encoding="utf-8"?>
<!-- Generator: Adobe Illustrator 21.1.0, SVG Export Plug-In . SVG Version: 6.00 Build 0)  -->
<svg version="1.1" id="Слой_1" xmlns="http://www.w3.org/2000/svg" xmlns:xlink="http://www.w3.org/1999/xlink" x="0px" y="0px"
	 viewBox="0 0 128 128" style="enable-background:new 0 0 128 128;" xml:space="preserve">
<style type="text/css">
	.st0{fill:#F0EFEF;}
	.st1{fill:#355169;}
	.st2{fill:#F6CA41;}
	.st3{fill:#355067;}
</style>
<path class="st0" d="M117.9,103.1H10.1c-4.5,0-8.1-3.6-8.1-8.1V33.1c0-4.5,3.6-8.1,8.1-8.1h107.8c4.5,0,8.1,3.6,8.1,8.1v61.9
	C126,99.4,122.4,103.1,117.9,103.1z"/>
<g>
	<polygon class="st1" points="49.2,78.9 54.3,49.2 62.4,49.2 57.3,78.9 	"/>
	<path class="st1" d="M86.7,49.9c-1.6-0.6-4.1-1.2-7.3-1.2c-8,0-13.6,4-13.7,9.8c0,4.3,4,6.7,7.1,8.1c3.2,1.5,4.2,2.4,4.2,3.7
		c0,2-2.5,2.9-4.8,2.9c-3.2,0-5-0.4-7.6-1.6l-1-0.5l-1.1,6.7c1.9,0.8,5.4,1.5,9,1.6c8.5,0,14-4,14.1-10.1c0-3.4-2.1-5.9-6.8-8.1
		c-2.8-1.4-4.6-2.3-4.5-3.7c0-1.2,1.5-2.6,4.6-2.6c2.6,0,4.6,0.5,6.1,1.1l0.7,0.3L86.7,49.9L86.7,49.9z"/>
	<path class="st1" d="M107.4,49.2h-6.3c-1.9,0-3.4,0.5-4.2,2.5l-12,27.2h8.5c0,0,1.4-3.7,1.7-4.5c0.9,0,9.2,0,10.4,0
		c0.2,1,1,4.4,1,4.4h7.5L107.4,49.2L107.4,49.2z M97.5,68.4c0.7-1.7,3.2-8.3,3.2-8.3c0,0.1,0.7-1.7,1.1-2.8l0.5,2.6
		c0,0,1.5,7.1,1.9,8.6H97.5L97.5,68.4z"/>
	<path class="st1" d="M42.4,49.2l-7.9,20.3l-0.8-4.1c-1.5-4.7-6.1-9.9-11.2-12.5l7.2,26l8.6,0L51,49.2L42.4,49.2L42.4,49.2z"/>
	<path class="st2" d="M27.2,49.2H14.1L14,49.8c10.2,2.5,16.9,8.4,19.7,15.5l-2.8-13.7C30.3,49.8,28.9,49.3,27.2,49.2L27.2,49.2z"/>
</g>
<path class="st3" d="M2,33.1v6.9h124v-6.9c0-4.5-3.6-8.1-8.1-8.1H10.1C5.6,24.9,2,28.6,2,33.1z"/>
<path class="st2" d="M2,88v7c0,4.1,3,7.5,7,8H119c3.9-0.6,7-3.9,7-8v-7H2z"/>
</svg>
