<svg xmlns="http://www.w3.org/2000/svg" viewBox="0 0 321.69 167.18"><title>Asset 1</title><g id="Layer_2" data-name="Layer 2"><g id="Layer_1-2" data-name="Layer 1"><path d="M76.65,86.46q-1.42,6.72-3,13.77T70.43,113.6q-1.69,6.32-3.42,11.28a35,35,0,0,1-3.32,7.37q-3.35,4.95-7.5,5.49a9.9,9.9,0,0,1-7.68-2.25,18.92,18.92,0,0,0,3.89-4.74,58.71,58.71,0,0,0,3.66-7.18q1.78-4.11,3.38-9t3.06-10.2q.31-1.07,1-3.67t1.56-6.19l1.41-5.45L55,95l-2.82-6.53c4.39-3.6,11.05-5.72,16.61-9.24q.68-2.88,1.37-5.86,1.51-6.49,2.71-12.16t1.91-9.84q.23-1.35.36-2.41C66,52.31,50.83,59.1,48.66,70.08c-3.11-.88-7.06-3.52-8-6.85C43.64,48,90.23,28.36,101.87,42.44L98,46c-5.38-1.47-10-.9-15.3.51q0,1.3,0,2.71-.12,2.14-.38,4.31t-.54,4.29q-.27,2.12-.58,3.79t-.91,5.62q-.49,2.93-1.2,6.69A41.91,41.91,0,0,1,85.38,72c1.77,1.6,1.07,5.86,0,8.4-2-.41-4.82,1.26-7.93,2.62Z" fill="#ed1c24"/><path d="M141.3,65.45q5.39-1.74,9.53,3.64c-2.27,3.4-4.95,7.16-6.4,10.4A67.53,67.53,0,0,0,139.56,96l20.34-27.32q3.34,1.24.2,6.56l-21.3,32.54q-8.74-1.69-9.67-8.91.59-2.32,1.18-4.58t1.28-4.59q-1.29,2.35-2.95,5.21l-3.56,5.94q-2.08,3.48-4.77,7.79-8.74-1.69-9.67-8.91,1.24-5.53,2.94-10.74t3.71-10.18c2.72-6.72,3.57-8.42,6.34-15.11q5.4-1.74,9.53,3.64c-8,12.85-10.66,19.82-12.34,30.71q0-.1,4.23-6.42t12.56-18.05C139.82,68.36,139.11,70.67,141.3,65.45Z" fill="#ed1c24"/><path d="M164.84,59.2q5.36-1.38,9,4.51-13.36,17.15-17.75,32.63l23-25.05q3.19,1.58-.48,6.55l-24.48,30q-8.42-2.59-8.59-9.87,1.81-5.37,4-10.32T154.32,78q2.52-4.73,5.18-9.36t5.34-9.45Zm12.47-20.69a15.88,15.88,0,0,1,5,.29,11.73,11.73,0,0,1,4.72,2l-6,7.9q-2.24-.93-3.69-1.56t-3.12-1.23Z" fill="#ed1c24"/><path d="M193.73,39.82a10.19,10.19,0,0,1,5.13.8,10.08,10.08,0,0,1,4.06,3.82q-1.51,2-3.21,4.59t-3.45,5.38l7.46.47a2.93,2.93,0,0,1,1.08.26A5.29,5.29,0,0,1,206,58.6l-2.78-.16c-.93-.05-8-.44-9-.36q-2.66,4.63-5.3,9.75T184,78.1q-2.29,5.15-4.28,10.11t-3.34,9.37L198.95,73.1q3.39,1.59-.47,6.35l-24.59,30.34a14.76,14.76,0,0,1-6.55-3.77,9.46,9.46,0,0,1-2.42-6.22,85.93,85.93,0,0,1,3.24-8.58q2.13-5,4.75-10.58t5.61-11.53q3-5.9,5.9-11.41a3.61,3.61,0,0,1-1.15.13c-.36,0-4.58-.54-5-.56a8.08,8.08,0,0,1-1.47-2.08,7.14,7.14,0,0,1-.74-2.73q1.69.1,3.32.24c1.09.1,6,.67,7.12.73q2.23-4.05,4.08-7.58T193.73,39.82Z" fill="#ed1c24"/><path d="M235.38,79q3.14,1.87-1,6.49l-27.1,27.78q-8.16-3.31-7.81-10.49l2-4.32q1-2.16,2.13-4.21-1.71,2.06-3.89,4.56-1.92,2.13-4.57,5.11t-6.11,6.69q-8.26-3.32-7.81-10.49,2.27-5.19,4.93-10t5.54-9.29q2.87-4.5,6-8.92t6.2-9q5.45-.81,8.57,5.28l2.73,7.44A55,55,0,0,0,218.65,70q5.45-.81,8.67,5.29c-10,10.72-13.35,16.65-17,26.63l25.08-23Zm-43.74,21.32q.11-.08,5.43-5.48t15.61-15.25l-2.92-8.17Q196.63,86.13,191.64,100.28Z" fill="#ed1c24"/><path d="M247.48,88.46a21.35,21.35,0,0,1,1.42-4.53A50.25,50.25,0,0,1,251.7,78q-.88-1.7-4.58.09a13.93,13.93,0,0,0-7.27,6.4,18.57,18.57,0,0,0-2,8.74,28.48,28.48,0,0,0,1.75,9.23,40,40,0,0,0,3.83,8,10,10,0,0,1-3.64,5.25,11.5,11.5,0,0,1-5.51,1.94,20.55,20.55,0,0,1-6.54-.5,32.75,32.75,0,0,1-6.5-2.22,3.48,3.48,0,0,1-1.06-3.81,17,17,0,0,1,3-4.82,10.93,10.93,0,0,0,4.63,4,17.62,17.62,0,0,0,6.07,1.32q-1.54-4-3-7.44a32,32,0,0,1-2-6.94,24.14,24.14,0,0,1-.09-7.12,25.26,25.26,0,0,1,2.67-8A24.6,24.6,0,0,1,235,77a20,20,0,0,1,4.76-4,17.77,17.77,0,0,1,5.67-2.21,13.3,13.3,0,0,1,6.11.11c3.1.82,6.83,4.32,9.72,6-.36.34-.85,1-1.8,2s-1.92,2.22-2.88,3.48-1.89,2.51-2.78,3.75-1.66,2.3-2.31,3.19Z" fill="#ed1c24"/><path d="M282.25,57.48a10.19,10.19,0,0,1,4.89,1.76,10.08,10.08,0,0,1,3.26,4.53q-1.87,1.68-4,3.9t-4.42,4.62c.45.12,7.52,1.43,7.9,1.53a2.91,2.91,0,0,1,1,.46,5.29,5.29,0,0,1,.51,3.62l-2.7-.69c-.9-.23-8.47-1.61-9.4-1.71q-3.5,4-7.07,8.56t-6.8,9.14q-3.23,4.61-6.13,9.11t-5.06,8.56L281,91.14q3,2.21-1.67,6.14l-29.93,25.09a14.75,14.75,0,0,1-5.71-5,9.46,9.46,0,0,1-1.19-6.57,85.73,85.73,0,0,1,4.82-7.8q3-4.46,6.69-9.48t7.7-10.24q4.06-5.22,8-10.07a3.6,3.6,0,0,1-1.16-.09l-6.62-1.58a8.08,8.08,0,0,1-1-2.32,7.15,7.15,0,0,1-.2-2.82q1.64.42,3.22.87c1.05.3,7.54,1.87,8.63,2.14q3-3.55,5.45-6.66T282.25,57.48Z" fill="#ed1c24"/><path d="M289.73,81.62q5.53-.14,7.75,6.42-16.87,13.7-24.64,27.8l28-19.24q2.76,2.26-1.94,6.27l-30.61,23.77q-7.62-4.41-6.15-11.55,3-4.83,6.26-9.15t6.81-8.37q3.52-4,7.15-8t7.32-8Zm16.8-17.35a15.88,15.88,0,0,1,4.82,1.41,11.73,11.73,0,0,1,4.15,3l-7.43,6.55q-2-1.41-3.25-2.35T302.07,71Z" fill="#ed1c24"/><path d="M300.62,127.84c-2.54,1.14-5,2.15-7.2,3a47,47,0,0,1-5.66,1.86q-2.3.56-2.64,0a19,19,0,0,1-1.32-1.94q-.58-1-1.53-2.54t-2.15-3.49a6.64,6.64,0,0,1,.8-4.67,89.41,89.41,0,0,1,12.46-17.92,75.9,75.9,0,0,1,14.29-12.32,4.84,4.84,0,0,1,3.55-.81,5,5,0,0,1,3.11,1.36c2.33,2.75,4.91,5.31,7.2,8.31-.5.66,0,.06-1.27,1.2s-2.5,2.42-3.77,3.84-2.52,2.82-3.75,4.22-2.32,2.56-3.28,3.49l-3.65-1.92a19.48,19.48,0,0,1,1.12-2.45q.8-1.51,1.77-3.23t2.2-3.55q1.22-1.84,2.41-3.42-3.82,3.08-7,6.07t-6,6q-2.8,3-5.24,6.22a64.33,64.33,0,0,0-4.61,7l.68-1q-1.42,2.24-1,3.11t2,.8a14.86,14.86,0,0,0,4.14-1q2.53-.9,5.35-2.18c7.42-3.36,15.43-5.56,19.15,4.74,4.66,11-6.73,19.89-31.9,22.83-17.83,2.08-35.79-1.92-53.92-5.6-31.24-6.35-63-14.93-95.41-12.59-25.86,1.87-41.37,20.48-40.28,35.91-9.33-6.74-30.74-14.7-17.07-30,37.43-42,138.94-2.75,185.34,5.21,30.44,5.22,52.68-1.83,50.35-10.74C315.42,122.52,306.47,125.21,300.62,127.84Z" fill="#ed1c24"/><path d="M103.42,107q-8.3-1.08-9.58-7.95A60.34,60.34,0,0,1,96,90.46q1.38-4.18,3-8.24t3.5-8q1.86-4,3.56-7.95a4.54,4.54,0,0,0-2.37-1.76,3.87,3.87,0,0,0-3,.29q-2.8,6.07-5.35,13.12t-4.51,14a123.1,123.1,0,0,0-3,13.14,44.72,44.72,0,0,0-.71,10.46,6.69,6.69,0,0,1-2.64-.39,12,12,0,0,1-2.94-1.41,7.34,7.34,0,0,1-2.22-2.23,4,4,0,0,1-.58-2.84q.85-3.58,2.17-8.36T83.91,90.1q1.62-5.36,3.53-10.84t3.91-10.48q2-5,4.1-9.1a46.5,46.5,0,0,1,4-6.69l8.21-.81q-1.05,1.5-2.16,3.41t-2.29,4.12a17.32,17.32,0,0,1,8.51,1.71A8.92,8.92,0,0,1,116,66.54L114.56,69q-1.46,2.44-3.45,6.54t-4,9.39A62.68,62.68,0,0,0,104,95.81L121.44,68.9q3.3,1.07.52,6.24Z" fill="#ed1c24"/><path d="M46.32,15.32a35.61,35.61,0,0,1,63,8.9,17.51,17.51,0,0,1,16.26,30.4L120.49,48a11.07,11.07,0,0,0-13.67-16.12,13.92,13.92,0,0,0-1.5.78,11.14,11.14,0,0,0-1.69,1.28,11.27,11.27,0,0,0-1,1.1l0-.25s-.56-3-.65-3.59a27.56,27.56,0,0,0-49.55-9.67l-2.46,3.55-4-1.72A15.48,15.48,0,0,0,25.21,42.73l1.5,4.22L22.78,49.1A23.55,23.55,0,0,0,10.64,71.5,18.65,18.65,0,0,0,12.39,78a24.39,24.39,0,0,0,4.26,6.21c4.47,4.81,12.44,9.49,19.22,9a25.83,25.83,0,0,0,4.88-.86l2,4.93h0l1,2.42A36.55,36.55,0,0,1,33.57,102C20.53,103,1.38,90.41.09,73.21A31.24,31.24,0,0,1,16.2,43.5,22.49,22.49,0,0,1,46.32,15.32Z" fill="#ed1c24" fill-rule="evenodd"/></g></g></svg>