<?xml version="1.0" ?><!DOCTYPE svg  PUBLIC '-//W3C//DTD SVG 1.1//EN'  'http://www.w3.org/Graphics/SVG/1.1/DTD/svg11.dtd'><svg enable-background="new 0 0 128 128" height="128px" id="Layer_1" version="1.1" viewBox="0 0 128 128" width="128px" xml:space="preserve" xmlns="http://www.w3.org/2000/svg" xmlns:xlink="http://www.w3.org/1999/xlink"><g><g><g><g><g><g><g><polygon fill="#FFFFFF" points="35.1,59.4 64,69.8 64,99.6 35.1,88.7        "/></g></g></g></g><g><g><g><g><polygon fill="#FFFFFF" points="92.9,59.4 64,69.8 64,99.6 92.9,88.7        "/></g></g></g></g><g><g><g><g><path d="M64,68.5L33.8,57.6v32l28.9,10.9L64,101l1.3-0.5V68.9L64,68.5z M36.4,61.2l26.4,9.5v27.1l-26.4-10         V61.2z" fill="#272827"/></g></g></g></g><g><g><g><g><path d="M64,68.5l-1.3,0.5v31.6L64,101l1.3-0.5l28.9-10.9v-32L64,68.5z M91.6,87.8l-26.4,10V70.7l26.4-9.5         V87.8z" fill="#272827"/></g></g></g></g><g><g><g><polygon fill="#F4B91A" points="35.1,59.4 64,49 49.5,43 20.9,53.6       "/></g></g></g><g><g><g><polygon fill="#F4B91A" points="92.9,59.4 64,49 78.5,43 107.1,53.6       "/></g></g></g><g><g><g><polygon fill="#F4B91A" points="92.9,59.4 64,69.8 78.5,75.8 107.1,65.2       "/></g></g></g><g><g><g><polygon fill="#F4B91A" points="35.1,59.4 64,69.8 49.5,75.8 20.9,65.2       "/></g></g></g><g><g><g><path d="M35.1,60.8l-17.7-7.2l32.2-11.9l17.9,7.4L35.1,60.8z M24.4,53.7l10.7,4.4l25.4-9.1l-11-4.5L24.4,53.7z        " fill="#272827"/></g></g></g><g><g><g><path d="M92.9,60.8L60.5,49.1l17.9-7.4l32.2,11.9L92.9,60.8z M67.5,48.9l25.4,9.1l10.7-4.4l-25.1-9.3        L67.5,48.9z" fill="#272827"/></g></g></g><g><g><g><path d="M78.4,77.2l-17.9-7.4l32.4-11.7l17.7,7.2L78.4,77.2z M67.5,69.9l11,4.5l25.1-9.3l-10.7-4.4L67.5,69.9z        " fill="#272827"/></g></g></g><g><g><g><path d="M49.6,77.2L17.4,65.2l17.7-7.2l32.4,11.7L49.6,77.2z M24.4,65.1l25.1,9.3l11-4.5l-25.4-9.1L24.4,65.1z        " fill="#272827"/></g></g></g><g><g><g><polygon fill="#FFFFFF" points="64,49 92.9,59.4 64,69.8 35.1,59.4       "/></g></g></g><g><g><g><path d="M64,71.2L31.4,59.4L64,47.6l32.6,11.8L64,71.2z M38.8,59.4L64,68.5l25.2-9.1L64,50.3L38.8,59.4z" fill="#272827"/></g></g></g><g><g><g><path d="M64,71.2L31.4,59.4L64,47.6l32.6,11.8L64,71.2z M38.8,59.4L64,68.5l25.2-9.1L64,50.3L38.8,59.4z" fill="#272827"/></g></g></g></g><g><g><g><g><path d="M66.3,64.5h-2.5V40.5c0-7.4,6-13.5,13.5-13.5c7.4,0,13.5,6,13.5,13.5h-2.5c0-6-4.9-10.9-10.9-10.9        c-6,0-10.9,4.9-10.9,10.9V64.5z" fill="#272827"/></g></g></g><g><g><g><polygon fill="#272827" points="64.8,66 56.4,57.2 58.2,55.4 64.8,62.4 71.5,55.7 73.3,57.4       "/></g></g></g></g></g></g></svg>