<?xml version="1.0" ?><!DOCTYPE svg  PUBLIC '-//W3C//DTD SVG 1.1//EN'  'http://www.w3.org/Graphics/SVG/1.1/DTD/svg11.dtd'><svg enable-background="new 0 0 64 64" id="Layer_1" version="1.1" viewBox="0 0 64 64" xml:space="preserve" xmlns="http://www.w3.org/2000/svg" xmlns:xlink="http://www.w3.org/1999/xlink"><g><polygon fill="#FFFFFF" points="46.5,63 46.5,1 13.9,1 1,13.8 1,63  "/><polygon fill="#F16051" points="5,59 5,15.4 15.6,5 42.5,5 42.5,59  "/><polygon fill="#E1E6E9" points="15.6,15.5 5,15.5 15.6,5  "/><g><rect fill="#193651" height="2" width="26.2" x="10.7" y="23.8"/><rect fill="#193651" height="2" width="26.2" x="10.7" y="36.2"/><rect fill="#193651" height="2" width="2" x="22.7" y="11.7"/><rect fill="#193651" height="2" width="2" x="28.7" y="11.7"/><rect fill="#193651" height="2" width="2" x="34.6" y="11.7"/></g><g><path d="M49.1,35.2L49.1,35.2c-7.7,0-13.9,6.2-13.9,13.9l0,0c0,7.7,6.2,13.9,13.9,13.9h0C56.8,63,63,56.8,63,49.1    l0,0C63,41.4,56.8,35.2,49.1,35.2z" fill="#FFFFFF"/><path d="M49.1,34.2c-0.5,0-1.1,0-1.6,0.1V0h-34L0,13.4V64h47.5v-0.1C48,64,48.6,64,49.1,64    C57.3,64,64,57.3,64,49.1S57.3,34.2,49.1,34.2z M2,62V14.2L14.3,2h31.2v32.6c-6.3,1.6-11.1,7.2-11.3,14H10.7v2h23.6    c0.5,4.9,3.3,9.1,7.4,11.4H2z M49.1,62c-7.1,0-12.9-5.8-12.9-12.9c0-7.1,5.8-12.9,12.9-12.9C56.2,36.2,62,42,62,49.1    C62,56.2,56.2,62,49.1,62z" fill="#193651"/></g><path d="M49.1,59c-5.5,0-9.9-4.4-9.9-9.9c0-5.5,4.4-9.9,9.9-9.9c5.5,0,9.9,4.4,9.9,9.9C59,54.6,54.6,59,49.1,59z" fill="#D3D7DA"/><polygon fill="#193651" points="46.9,52.1 45.3,48.7 42.3,50.5 45.6,54.7 46.6,56.1 47.5,54.8 54.8,43.1  "/></g></svg>