<svg width="512" height="512" xmlns="http://www.w3.org/2000/svg">
 <title/>
 <desc/>

 <g>
  <title>background</title>
  <rect fill="none" id="canvas_background" height="402" width="582" y="-1" x="-1"/>
 </g>
 <g>
  <title>Layer 1</title>
  <path id="Fill-1" fill="#ffffff" d="m495.33502,279.21253c0,95.16956 -77.14965,172.31922 -172.31921,172.31922c-95.16957,0 -172.31923,-77.14966 -172.31923,-172.31922c0,-95.16956 77.14966,-172.31922 172.31923,-172.31922c95.16956,0 172.31921,77.14966 172.31921,172.31922"/>
  <path id="Fill-3" fill="#ffffff" d="m363.02299,111.75231c49.56409,32.53073 82.35707,88.52605 82.35707,152.25132c0,95.6441 -73.76546,173.89268 -167.48644,181.3479c14.39844,3.90869 29.48371,6.18147 45.13093,6.18147c95.15707,0 172.30673,-77.14966 172.30673,-172.31922c0,-81.37054 -56.46986,-149.39161 -132.30829,-167.46147"/>
  <path id="Fill-5" fill="#373844" d="m323.0183,119.38486c-88.12644,0 -159.83141,71.69249 -159.83141,159.83141c0,88.12644 71.70497,159.83142 159.83141,159.83142c88.12644,0 159.83142,-71.70498 159.83142,-159.83142c0,-88.13892 -71.70498,-159.83141 -159.83142,-159.83141m0,344.63844c-101.90048,0 -184.80702,-82.90654 -184.80702,-184.80703c0,-101.90048 82.90654,-184.80702 184.80702,-184.80702c101.90049,0 184.80703,82.90654 184.80703,184.80702c0,101.90049 -82.90654,184.80703 -184.80703,184.80703"/>
  <path id="Fill-7" fill="#3BB777" d="m299.23653,152.76726c-9.10361,29.99571 -37.45093,35.90244 -67.44664,26.79883c-29.99571,-9.10361 -50.28839,-29.75844 -41.18478,-59.76664c9.10361,-29.9957 58.04332,-49.38926 88.03903,-40.28565c29.9957,9.1036 29.696,43.25775 20.59239,73.25346"/>
  <path id="Fill-9" fill="#ffffff" d="m299.23653,152.76726c-9.10361,29.99571 -37.45093,35.90244 -67.44664,26.79883c-29.99571,-9.10361 -50.28839,-29.75844 -41.18478,-59.76664c9.10361,-29.9957 58.04332,-49.38926 88.03903,-40.28565c29.9957,9.1036 29.696,43.25775 20.59239,73.25346"/>
  <path id="Fill-11" fill="#ffffff" d="m241.83009,146.4784c-23.9641,-7.2679 -41.43454,-22.02849 -42.98303,-42.92059c-3.45912,4.88274 -6.40624,10.21503 -8.24195,16.24664c-9.10361,29.99571 11.18907,50.66302 41.18478,59.76663c29.99571,9.10361 58.34303,3.19688 67.44664,-26.79883c1.8357,-6.04409 2.3477,-12.11317 2.17287,-18.09483c-12.88741,16.52137 -35.61521,19.06888 -59.57931,11.80098"/>
  <path id="Fill-13" fill="#373844" d="m262.29885,89.7513c-23.37717,0 -53.80995,14.13619 -59.74166,33.66712c-3.12195,10.31493 -1.8482,18.99395 3.89619,26.5241c5.79435,7.5801 15.79708,13.68663 28.95923,17.67024c13.16214,4.00859 24.8757,4.48312 33.90439,1.41112c8.96624,-3.072 14.83551,-9.57814 17.96995,-19.88058c5.60702,-18.45698 11.45131,-50.47571 -12.26303,-57.68117c-3.82127,-1.16137 -8.12956,-1.71083 -12.72507,-1.71083m-6.13151,106.22127c-8.80391,0 -18.24469,-1.48605 -28.01015,-4.45815c-18.18224,-5.51961 -32.55571,-14.6482 -41.54693,-26.41171c-10.67707,-13.97385 -13.42439,-30.88234 -7.95473,-48.92722c11.46381,-37.75063 68.12098,-59.32956 103.61132,-48.61502c32.04371,9.728 42.85815,42.93307 28.92175,88.82575c-5.46965,18.03239 -17.15824,30.58264 -33.80448,36.26459c-6.49366,2.21034 -13.6242,3.32176 -21.21678,3.32176"/>
  <path id="Fill-15" fill="#3BB777" d="m346.79883,152.76726c9.10361,29.99571 37.45093,35.90244 67.44663,26.79883c29.99571,-9.10361 50.28839,-29.75844 41.18478,-59.76664c-9.10361,-29.9957 -58.04331,-49.38926 -88.03902,-40.28565c-29.99571,9.1036 -29.696,43.25775 -20.59239,73.25346"/>
  <path id="Fill-17" fill="#ffffff" d="m347.931573,152.76726c9.10361,29.99571 37.45093,35.90244 67.44663,26.79883c29.99571,-9.10361 50.28839,-29.75844 41.18478,-59.76664c-9.10361,-29.9957 -58.04331,-49.38926 -88.03902,-40.28565c-29.99571,9.1036 -29.696,43.25775 -20.59239,73.25346"/>
  <path id="Fill-19" fill="#ffffff" d="m404.20527,146.4784c23.9641,-7.2679 41.43454,-22.02849 42.98302,-42.92059c3.45913,4.88274 6.40625,10.21503 8.24195,16.24664c9.10361,29.99571 -11.18907,50.66302 -41.18478,59.76663c-29.9957,9.10361 -58.34302,3.19688 -67.44663,-26.79883c-1.83571,-6.04409 -2.34771,-12.11317 -2.17288,-18.09483c12.88742,16.52137 35.61522,19.06888 59.57932,11.80098"/>
  <path id="Fill-21" fill="#373844" d="m383.73776,89.76379c-4.59552,0 -8.9163,0.53697 -12.72508,1.69834c-23.71434,7.20546 -17.87005,39.22419 -12.26302,57.68117c3.13444,10.30244 9.00371,16.80858 17.96995,19.88058c9.0162,3.072 20.75473,2.59747 33.90439,-1.41112c13.16215,-3.98361 23.16488,-10.09014 28.95922,-17.67024c5.74439,-7.53015 7.01815,-16.20917 3.8962,-26.5241c-5.93171,-19.53093 -36.35201,-33.65463 -59.74166,-33.65463m6.13151,106.20878c-7.59259,0 -14.72312,-1.11142 -21.21678,-3.32176c-16.64625,-5.68195 -28.33483,-18.2322 -33.80449,-36.26459c-13.93639,-45.89268 -3.12195,-79.09775 28.90927,-88.82575c35.54029,-10.752 92.16,10.86439 103.6238,48.61502c5.46966,18.04488 2.72234,34.95337 -7.95473,48.92722c-8.99122,11.76351 -23.36468,20.8921 -41.55941,26.41171c-9.75298,2.9721 -19.19376,4.45815 -27.99766,4.45815"/>
  <path id="Fill-23" fill="#373844" d="m331.85967,140.39684c-5.23239,0 -10.10264,-3.30927 -11.85093,-8.54166c-12.98732,-38.97444 -5.2199,-81.33307 3.59649,-110.01756c2.02302,-6.59356 9.04117,-10.32742 15.59727,-8.26693c6.60605,2.02303 10.30244,9.00371 8.27941,15.60976c-7.74244,25.17541 -14.67317,62.06439 -3.77131,94.78244c2.18536,6.54361 -1.36118,13.61171 -7.90479,15.78458c-1.31121,0.43708 -2.64741,0.64937 -3.94614,0.64937"/>
  <path id="Fill-25" fill="#3BB777" d="m387.93366,146.88425c0,35.85249 -29.05912,51.73698 -64.91161,51.73698c-35.85249,0 -64.9241,-15.88449 -64.9241,-51.73698c0,-35.85248 29.07161,-64.91161 64.9241,-64.91161c35.85249,0 64.91161,29.05913 64.91161,64.91161"/>
  <path id="Fill-27" fill="#ffffff" d="m387.93366,148.016993c0,35.85249 -29.05912,51.73698 -64.91161,51.73698c-35.85249,0 -64.9241,-15.88449 -64.9241,-51.73698c0,-35.85248 29.07161,-64.91161 64.9241,-64.91161c35.85249,0 64.91161,29.05913 64.91161,64.91161"/>
  <path id="Fill-29" fill="#ffffff" d="m323.0183,159.06611c-28.63453,0 -52.67356,-10.35239 -61.29014,-32.69308c-2.17288,6.48117 -3.62147,13.29952 -3.62147,20.51747c0,35.85249 29.05913,51.72448 64.91161,51.72448c35.85249,0 64.91161,-15.87199 64.91161,-51.72448c0,-7.21795 -1.44858,-14.0363 -3.62146,-20.51747c-8.61659,22.34069 -32.65561,32.69308 -61.29015,32.69308"/>
  <path id="Fill-31" fill="#373844" d="m323.0183,94.45795c-28.90927,0 -52.4238,23.52703 -52.4238,52.42381c0,35.41541 36.66419,39.24917 52.4238,39.24917c15.75961,0 52.42381,-3.83376 52.42381,-39.24917c0,-28.89678 -23.51454,-52.42381 -52.42381,-52.42381m0,116.64859c-47.74088,0 -77.39941,-24.61347 -77.39941,-64.22478c0,-42.68332 34.72858,-77.39942 77.39941,-77.39942c42.67083,0 77.39942,34.7161 77.39942,77.39942c0,39.61131 -29.65854,64.22478 -77.39942,64.22478"/>
  <path id="Fill-33" fill="#ffffff" d="m164.51184,483.84019c83.95552,0 152.02654,-68.05853 152.02654,-152.02653l-304.05307,0c0,83.968 68.07102,152.02653 152.02653,152.02653"/>
  <path id="Fill-35" fill="#ffffff" d="m279.07372,331.81491c0,77.59922 -58.19317,141.49931 -133.29483,150.75278c6.15649,0.76175 12.37541,1.27375 18.7317,1.27375c83.96801,0 152.02654,-68.07102 152.02654,-152.02653l-37.46341,0z"/>
  <path id="Fill-37" fill="#FEFEFE" d="m169.41331,331.81491c0,0 58.71766,-93.696 -6.46869,-93.696c-124.05385,-33.04273 -123.904,93.696 -123.904,93.696"/>
  <path id="Fill-39" fill="#373844" d="m39.04312,344.30021c-6.89327,0 -12.4878,-5.58204 -12.4878,-12.47531c0,-2.52254 0.38712,-62.3641 41.04741,-93.63356c24.27629,-18.69425 56.89444,-22.91512 97.03025,-12.52527c21.91609,0.47453 32.01873,10.41483 36.6517,18.78166c16.7961,30.34536 -14.78556,83.61834 -21.2917,93.9957c-3.64644,5.85678 -11.36391,7.5801 -17.19571,3.95864c-5.85678,-3.65893 -7.61756,-11.3639 -3.97112,-17.2082c12.53775,-20.0679 27.76039,-55.75805 20.60487,-68.65795c-2.17287,-3.93366 -7.71746,-5.91922 -16.4839,-5.91922c-1.08644,0 -2.16039,-0.14985 -3.20936,-0.42458c-32.91786,-8.76644 -58.7801,-6.13151 -76.91239,7.79239c-30.99474,23.8517 -31.29444,73.3159 -31.29444,73.81541c0,6.89327 -5.56956,12.48781 -12.47532,12.50029l-0.01249,0z"/>
  <path id="Fill-41" fill="#FEFEFE" d="m156.48094,331.81491c0,0 -58.71766,-93.696 6.46868,-93.696c124.05385,-33.04273 123.904,93.696 123.904,93.696"/>
  <path id="Fill-43" fill="#373844" d="m156.49342,344.30021c-4.15844,0 -8.21697,-2.07297 -10.58965,-5.85678c-6.50615,-10.37736 -38.08781,-63.65034 -21.29171,-94.00819c4.62049,-8.35434 14.73561,-18.29464 36.65171,-18.76917c40.09834,-10.36488 72.75395,-6.16898 97.03024,12.52527c40.66029,31.26946 41.04741,91.11102 41.04741,93.63356c-0.01248,6.89327 -5.59453,12.47531 -12.4878,12.47531l-0.01249,0c-6.90575,-0.01248 -12.4878,-5.60702 -12.47532,-12.50029c0,-0.47454 -0.49951,-50.21346 -31.39434,-73.89034c-18.10731,-13.87395 -43.95707,-16.47141 -76.81248,-7.71746c-1.04898,0.27473 -2.12293,0.42458 -3.20937,0.42458c-8.76644,0 -14.31102,1.98556 -16.4839,5.91922c-7.18049,12.96234 8.04214,48.61503 20.59239,68.64546c3.67141,5.8443 1.89814,13.54927 -3.94615,17.22069c-2.06049,1.28624 -4.35824,1.89814 -6.61854,1.89814"/>
  <path id="Fill-45" fill="#FEFEFE" d="m224.49951,331.81491c0,0 0,-105.19727 -65.18634,-105.19727c-65.18634,0 -65.18634,105.19727 -65.18634,105.19727"/>
  <path id="Fill-47" fill="#373844" d="m224.49951,344.28773c-6.89327,0 -12.47532,-5.56956 -12.4878,-12.46283c0,-0.9241 -0.77425,-92.72195 -52.69854,-92.72195c-51.9118,0 -52.69854,91.79785 -52.69854,92.72195c-0.01248,6.89327 -5.60702,12.46283 -12.4878,12.46283l-0.01249,0c-6.89327,0 -12.47532,-5.58205 -12.47532,-12.47532c0,-4.8078 0.88664,-117.68507 77.67415,-117.68507c76.78751,0 77.67415,112.87727 77.67415,117.68507c0,6.89327 -5.58205,12.47532 -12.47532,12.47532l-0.01249,0z"/>
  <path id="Fill-49" fill="#373844" d="m25.53007,344.30021c6.33132,71.10557 66.2478,127.05093 138.97678,127.05093c72.74146,0 132.64546,-55.94536 138.98927,-127.05093l-277.96605,0zm138.97678,152.02654c-90.71142,0 -164.50185,-73.80293 -164.50185,-164.51434c0,-6.90576 5.58204,-12.4878 12.4878,-12.4878l304.04059,0c6.89326,0 12.4878,5.58204 12.4878,12.4878c0,90.71141 -73.79044,164.51434 -164.51434,164.51434l0,0z"/>
  <path id="Fill-52" fill="#FEFEFE" d="m95.43305,439.38486c-1.79824,0 -3.62146,-0.512 -5.20741,-1.58595c-23.38966,-15.70966 -33.36742,-40.5479 -33.792,-41.59688c-1.88566,-4.82029 0.47454,-10.25249 5.28234,-12.16312c4.79532,-1.86069 10.22751,0.44956 12.13815,5.25736c0.08741,0.2123 8.40429,20.59239 26.79883,32.94283c4.30829,2.88468 5.44468,8.704 2.56,12.99981c-1.79825,2.69736 -4.77035,4.14595 -7.77991,4.14595"/>
  <path id="Fill-54" fill="#FEFEFE" d="m59.20968,353.76098c5.15746,4.37073 5.80683,12.10068 1.42361,17.25814c-4.37073,5.16995 -12.10069,5.80683 -17.25815,1.4361c-5.15746,-4.37073 -5.80683,-12.10068 -1.42361,-17.27063c4.37073,-5.15747 12.10068,-5.79435 17.25815,-1.42361"/>
  <ellipse id="svg_2" cy="266.761062" cx="267.893805" stroke-opacity="null" stroke-width="null" stroke="null" fill="#ffffff"/>
 </g>
</svg>