<?xml version="1.0" ?><svg height="512px" version="1.1" viewBox="0 0 512 512" width="512px" xmlns="http://www.w3.org/2000/svg" xmlns:xlink="http://www.w3.org/1999/xlink"><title/><desc/><defs/><g fill="none" fill-rule="evenodd" id="SVG" stroke="none" stroke-width="1"><g id="Mangosteen"><g transform="translate(0.000000, 13.000000)"><path d="M495.335024,266.212527 C495.335024,361.382088 418.185366,438.531746 323.015805,438.531746 C227.846244,438.531746 150.696585,361.382088 150.696585,266.212527 C150.696585,171.042966 227.846244,93.8933073 323.015805,93.8933073 C418.185366,93.8933073 495.335024,171.042966 495.335024,266.212527" fill="#7E64AB" id="Fill-1"/><path d="M363.022985,98.7523122 C412.587083,131.283044 445.380059,187.278361 445.380059,251.003629 C445.380059,346.647727 371.614595,424.896312 277.89362,432.351532 C292.292059,436.260215 307.377327,438.532995 323.024546,438.532995 C418.18162,438.532995 495.331278,361.383337 495.331278,266.213776 C495.331278,184.843239 438.861424,116.822166 363.022985,98.7523122" fill="#6E54A3" id="Fill-3"/><path d="M323.018302,106.384859 C234.891863,106.384859 163.186888,178.077346 163.186888,266.216273 C163.186888,354.342712 234.891863,426.047688 323.018302,426.047688 C411.144741,426.047688 482.849717,354.342712 482.849717,266.216273 C482.849717,178.077346 411.144741,106.384859 323.018302,106.384859 M323.018302,451.023298 C221.117815,451.023298 138.211278,368.116761 138.211278,266.216273 C138.211278,164.315785 221.117815,81.4092488 323.018302,81.4092488 C424.91879,81.4092488 507.825327,164.315785 507.825327,266.216273 C507.825327,368.116761 424.91879,451.023298 323.018302,451.023298" fill="#454849" id="Fill-5"/><path d="M299.236527,139.767259 C290.132917,169.762966 261.7856,175.669698 231.789893,166.566088 C201.794185,157.462478 181.501502,136.807649 190.605112,106.799454 C199.708722,76.8037463 248.648429,57.4101854 278.644137,66.5137951 C308.639844,75.6174049 308.340137,109.771551 299.236527,139.767259" fill="#3BB777" id="Fill-7"/><path d="M299.236527,139.767259 C290.132917,169.762966 261.7856,175.669698 231.789893,166.566088 C201.794185,157.462478 181.501502,136.807649 190.605112,106.799454 C199.708722,76.8037463 248.648429,57.4101854 278.644137,66.5137951 C308.639844,75.6174049 308.340137,109.771551 299.236527,139.767259" fill="#3BB777" id="Fill-9"/><path d="M241.830088,133.4784 C217.86599,126.210498 200.395551,111.449912 198.847063,90.5578146 C195.387941,95.4405463 192.44082,100.772839 190.605112,106.804449 C181.501502,136.800156 201.794185,157.467473 231.789893,166.571083 C261.7856,175.674693 290.132917,169.767961 299.236527,139.772254 C301.072234,133.728156 301.584234,127.659083 301.409405,121.677424 C288.52199,138.19879 265.794185,140.746302 241.830088,133.4784" fill="#229857" id="Fill-11"/><path d="M262.298849,76.7512976 C238.921678,76.7512976 208.488898,90.8874927 202.55719,110.41842 C199.435239,120.733346 200.708995,129.412371 206.453385,136.942517 C212.247727,144.522615 222.250459,150.629151 235.412605,154.612761 C248.574751,158.621346 260.288312,159.095883 269.316995,156.023883 C278.283239,152.951883 284.152507,146.445737 287.286946,136.143298 C292.893971,117.686322 298.738263,85.6675902 275.023922,78.4621268 C271.202654,77.300761 266.894361,76.7512976 262.298849,76.7512976 M256.167337,182.972566 C247.363434,182.972566 237.922654,181.486517 228.15719,178.51442 C209.974946,172.99481 195.601483,163.866224 186.610263,152.102712 C175.93319,138.128859 173.185873,121.220371 178.655532,103.175493 C190.119337,65.4248585 246.776507,43.8459317 282.266849,54.5604683 C314.310556,64.2884683 325.124995,97.4935415 311.188605,143.386224 C305.718946,161.418615 294.030361,173.968859 277.384117,179.65081 C270.890459,181.861151 263.759922,182.972566 256.167337,182.972566" fill="#454849" id="Fill-13"/><path d="M346.798829,139.767259 C355.902439,169.762966 384.249756,175.669698 414.245463,166.566088 C444.241171,157.462478 464.533854,136.807649 455.430244,106.799454 C446.326634,76.8037463 397.386927,57.4101854 367.39122,66.5137951 C337.395512,75.6174049 337.69522,109.771551 346.798829,139.767259" fill="#3BB777" id="Fill-15"/><path d="M346.798829,139.767259 C355.902439,169.762966 384.249756,175.669698 414.245463,166.566088 C444.241171,157.462478 464.533854,136.807649 455.430244,106.799454 C446.326634,76.8037463 397.386927,57.4101854 367.39122,66.5137951 C337.395512,75.6174049 337.69522,109.771551 346.798829,139.767259" fill="#3BB777" id="Fill-17"/><path d="M404.205268,133.4784 C428.169366,126.210498 445.639805,111.449912 447.188293,90.5578146 C450.647415,95.4405463 453.594537,100.772839 455.430244,106.804449 C464.533854,136.800156 444.241171,157.467473 414.245463,166.571083 C384.249756,175.674693 355.902439,169.767961 346.798829,139.772254 C344.963122,133.728156 344.451122,127.659083 344.625951,121.677424 C357.513366,138.19879 380.241171,140.746302 404.205268,133.4784" fill="#229857" id="Fill-19"/><path d="M383.737756,76.7637854 C379.142244,76.7637854 374.821463,77.300761 371.012683,78.4621268 C347.298341,85.6675902 353.142634,117.686322 358.749659,136.143298 C361.884098,146.445737 367.753366,152.951883 376.71961,156.023883 C385.735805,159.095883 397.474341,158.621346 410.624,154.612761 C423.786146,150.629151 433.788878,144.522615 439.58322,136.942517 C445.32761,129.412371 446.601366,120.733346 443.479415,110.41842 C437.547707,90.8874927 407.127415,76.7637854 383.737756,76.7637854 M389.869268,182.972566 C382.276683,182.972566 375.146146,181.861151 368.652488,179.65081 C352.006244,173.968859 340.317659,161.418615 334.848,143.386224 C320.91161,97.4935415 331.726049,64.2884683 363.757268,54.5604683 C399.297561,43.8084683 455.917268,65.4248585 467.381073,103.175493 C472.850732,121.220371 470.103415,138.128859 459.426341,152.102712 C450.435122,163.866224 436.061659,172.99481 417.866927,178.51442 C408.113951,181.486517 398.673171,182.972566 389.869268,182.972566" fill="#454849" id="Fill-21"/><path d="M331.859668,127.396839 C326.627278,127.396839 321.757034,124.087571 320.008741,118.85518 C307.021424,79.8807415 314.788839,37.5221073 323.605229,8.83761951 C325.628254,2.24405854 332.6464,-1.48979512 339.202498,0.570692683 C345.808546,2.59371707 349.504937,9.5744 347.481912,16.1804488 C339.739473,41.3558634 332.808741,78.244839 343.710595,110.962888 C345.895961,117.506498 342.349424,124.574595 335.805815,126.747473 C334.494595,127.184546 333.1584,127.396839 331.859668,127.396839" fill="#454849" id="Fill-23"/><path d="M387.933659,133.884254 C387.933659,169.736741 358.874537,185.621229 323.022049,185.621229 C287.169561,185.621229 258.097951,169.736741 258.097951,133.884254 C258.097951,98.0317659 287.169561,68.9726439 323.022049,68.9726439 C358.874537,68.9726439 387.933659,98.0317659 387.933659,133.884254" fill="#3BB777" id="Fill-25"/><path d="M387.933659,133.884254 C387.933659,169.736741 358.874537,185.621229 323.022049,185.621229 C287.169561,185.621229 258.097951,169.736741 258.097951,133.884254 C258.097951,98.0317659 287.169561,68.9726439 323.022049,68.9726439 C358.874537,68.9726439 387.933659,98.0317659 387.933659,133.884254" fill="#3BB777" id="Fill-27"/><path d="M323.018302,146.066107 C294.383766,146.066107 270.344741,135.713717 261.728156,113.373034 C259.555278,119.854205 258.106693,126.672546 258.106693,133.890498 C258.106693,169.742985 287.165815,185.614985 323.018302,185.614985 C358.87079,185.614985 387.929912,169.742985 387.929912,133.890498 C387.929912,126.672546 386.481327,119.854205 384.308449,113.373034 C375.691863,135.713717 351.652839,146.066107 323.018302,146.066107" fill="#229857" id="Fill-29"/><path d="M323.018302,81.4579512 C294.109034,81.4579512 270.594498,104.984976 270.594498,133.881756 C270.594498,169.297171 307.258693,173.130927 323.018302,173.130927 C338.777912,173.130927 375.442107,169.297171 375.442107,133.881756 C375.442107,104.984976 351.927571,81.4579512 323.018302,81.4579512 M323.018302,198.106537 C275.277424,198.106537 245.618888,173.493073 245.618888,133.881756 C245.618888,91.198439 280.347473,56.4823415 323.018302,56.4823415 C365.689132,56.4823415 400.417717,91.198439 400.417717,133.881756 C400.417717,173.493073 370.75918,198.106537 323.018302,198.106537" fill="#454849" id="Fill-31"/><path d="M164.511844,470.840195 C248.467356,470.840195 316.53838,402.781659 316.53838,318.813659 L12.4853073,318.813659 C12.4853073,402.781659 80.5563317,470.840195 164.511844,470.840195" fill="#7E64AB" id="Fill-33"/><path d="M279.073717,318.814907 C279.073717,396.414127 220.880546,460.314224 145.778888,469.567688 C151.935376,470.329444 158.154302,470.841444 164.510595,470.841444 C248.478595,470.841444 316.537132,402.77042 316.537132,318.814907 L279.073717,318.814907 Z" fill="#6E54A3" id="Fill-35"/><path d="M169.413307,318.814907 C169.413307,318.814907 228.130966,225.118907 162.944624,225.118907 C38.8907707,192.076176 39.0406244,318.814907 39.0406244,318.814907" fill="#FEFEFE" id="Fill-37"/><path d="M39.043122,331.300215 C32.1498537,331.300215 26.5553171,325.718166 26.5553171,318.824898 C26.5553171,316.302361 26.942439,256.4608 67.6027317,225.191337 C91.8790244,206.497093 124.497171,202.276215 164.632976,212.666068 C186.549073,213.140605 196.651707,223.080898 201.284683,231.447727 C218.08078,261.793093 186.499122,315.066068 179.992976,325.443434 C176.346537,331.300215 168.629073,333.023532 162.797268,329.402068 C156.940488,325.743141 155.179707,318.038166 158.826146,312.193873 C171.363902,292.125971 186.586537,256.435824 179.431024,243.535922 C177.258146,239.602263 171.713561,237.616702 162.947122,237.616702 C161.860683,237.616702 160.786732,237.466849 159.737756,237.192117 C126.819902,228.425678 100.957659,231.060605 82.8253659,244.984507 C51.8306341,268.836215 51.5309268,318.30041 51.5309268,318.799922 C51.5309268,325.69319 45.9613659,331.287727 39.0556098,331.300215 L39.043122,331.300215 Z" fill="#454849" id="Fill-39"/><path d="M156.480937,318.814907 C156.480937,318.814907 97.763278,225.118907 162.94962,225.118907 C287.003473,192.076176 286.85362,318.814907 286.85362,318.814907" fill="#FEFEFE" id="Fill-41"/><path d="M156.493424,331.300215 C152.334985,331.300215 148.276449,329.227239 145.903766,325.443434 C139.39762,315.066068 107.815961,261.793093 124.612059,231.435239 C129.232546,223.080898 139.347668,213.140605 161.263766,212.666068 C201.362107,202.30119 234.017717,206.497093 258.29401,225.191337 C298.954302,256.4608 299.341424,316.302361 299.341424,318.824898 C299.328937,325.718166 293.746888,331.300215 286.85362,331.300215 L286.841132,331.300215 C279.935376,331.287727 274.353327,325.69319 274.365815,318.799922 C274.365815,318.325385 273.866302,268.586459 242.971473,244.90958 C224.864156,231.035629 199.0144,228.438166 166.158985,237.192117 C165.11001,237.466849 164.036059,237.616702 162.94962,237.616702 C154.18318,237.616702 148.638595,239.602263 146.465717,243.535922 C139.285229,256.498263 154.507863,292.150946 167.058107,312.181385 C170.729522,318.025678 168.956254,325.730654 163.111961,329.402068 C161.051473,330.688312 158.753717,331.300215 156.493424,331.300215" fill="#454849" id="Fill-43"/><path d="M224.499512,318.814907 C224.499512,318.814907 224.499512,213.617639 159.313171,213.617639 C94.1268293,213.617639 94.1268293,318.814907 94.1268293,318.814907" fill="#FEFEFE" id="Fill-45"/><path d="M224.499512,331.287727 C217.606244,331.287727 212.024195,325.718166 212.011707,318.824898 C212.011707,317.9008 211.237463,226.102946 159.313171,226.102946 C107.401366,226.102946 106.614634,317.9008 106.614634,318.824898 C106.602146,325.718166 101.00761,331.287727 94.1268293,331.287727 L94.1143415,331.287727 C87.2210732,331.287727 81.6390244,325.705678 81.6390244,318.81241 C81.6390244,314.004605 82.5256585,201.127337 159.313171,201.127337 C236.100683,201.127337 236.987317,314.004605 236.987317,318.81241 C236.987317,325.705678 231.405268,331.287727 224.512,331.287727 L224.499512,331.287727 Z" fill="#454849" id="Fill-47"/><path d="M25.5300683,331.300215 C31.8613854,402.405776 91.7778732,458.351141 164.506849,458.351141 C237.248312,458.351141 297.152312,402.405776 303.496117,331.300215 L25.5300683,331.300215 Z M164.506849,483.326751 C73.7954341,483.326751 0.00499512195,409.523824 0.00499512195,318.81241 C0.00499512195,311.906654 5.5870439,306.324605 12.4928,306.324605 L316.533385,306.324605 C323.426654,306.324605 329.02119,311.906654 329.02119,318.81241 C329.02119,409.523824 255.230751,483.326751 164.506849,483.326751 L164.506849,483.326751 Z" fill="#454849" id="Fill-49"/><path d="M95.4330537,426.384859 C93.6348098,426.384859 91.8115902,425.872859 90.225639,424.798907 C66.8359805,409.089249 56.8582244,384.251005 56.433639,383.202029 C54.5479805,378.381737 56.9081756,372.949541 61.7159805,371.038907 C66.5112976,369.178224 71.9434927,371.488468 73.8541268,376.296273 C73.9415415,376.508566 82.2584195,396.888663 100.652956,409.239102 C104.961249,412.123785 106.097639,417.943102 103.212956,422.238907 C101.414712,424.936273 98.4426146,426.384859 95.4330537,426.384859" fill="#FEFEFE" id="Fill-52"/><path d="M59.209678,340.760976 C64.3671415,345.131707 65.0165073,352.861659 60.6332878,358.019122 C56.2625561,363.189073 48.5326049,363.825951 43.3751415,359.45522 C38.217678,355.084488 37.5683122,347.354537 41.9515317,342.184585 C46.3222634,337.027122 54.0522146,336.390244 59.209678,340.760976" fill="#FEFEFE" id="Fill-54"/></g></g></g></svg>